<?xml version="1.0" encoding="UTF-8"?>
<svg version="1.1" xmlns="http://www.w3.org/2000/svg" width="1280" height="387">
<path d="M0 0 C9.56781901 7.53598423 16.46340597 16.20746879 22 27 C23.74235892 24.75126802 25.33585822 22.47732064 26.875 20.08203125 C35.67826633 6.53729978 46.45395832 -1.60266209 62.1875 -5.8125 C78.3187648 -9.13027787 95.28242325 -7.25702515 109.54296875 1.31640625 C122.60850544 10.26910309 129.7054089 22.06812629 132.68359375 37.5546875 C133.9321935 46.25183059 134.09813146 54.84999862 134.05175781 63.62695312 C134.04845081 64.84425362 134.04514381 66.06155411 134.0417366 67.31574249 C134.03441895 69.9014688 134.02548141 72.48719096 134.01502991 75.07290649 C134.0003724 78.90269616 133.99190274 82.73244393 133.98571777 86.56225586 C133.95920353 101.94978952 133.89708405 117.3370831 133.81609726 132.72441864 C133.77599194 140.42956549 133.74370284 148.13460296 133.72900391 155.83984375 C133.71600986 162.64336722 133.68915623 169.44666759 133.64538693 176.25006533 C133.62282556 179.82912423 133.60708661 183.40790892 133.60811615 186.98704529 C133.6089972 190.94927999 133.57884804 194.91094164 133.54589844 198.87304688 C133.5509288 200.048974 133.55595917 201.22490112 133.56114197 202.4364624 C133.54722916 203.51216492 133.53331635 204.58786743 133.51898193 205.69616699 C133.51529476 206.62952629 133.51160759 207.56288559 133.50780869 208.5245285 C132.84562438 211.75255203 131.53063023 212.95783712 129 215 C126.76159668 215.5146637 126.76159668 215.5146637 124.29492188 215.53344727 C122.9032782 215.55720177 122.9032782 215.55720177 121.48352051 215.58143616 C119.99120911 215.57399635 119.99120911 215.57399635 118.46875 215.56640625 C117.44068237 215.57260483 116.41261475 215.57880341 115.35339355 215.58518982 C113.18140612 215.59228869 111.00936427 215.58911285 108.83740234 215.57641602 C105.51167872 215.5625487 102.18876726 215.59662367 98.86328125 215.63476562 C96.75260348 215.6357168 94.64192218 215.63385811 92.53125 215.62890625 C91.0389386 215.64879356 91.0389386 215.64879356 89.51647949 215.66908264 C88.58871704 215.65654953 87.66095459 215.64401642 86.70507812 215.63110352 C85.4840741 215.62966087 85.4840741 215.62966087 84.23840332 215.62818909 C80.89719744 214.69050773 79.89558733 212.84463173 78 210 C77.50057125 207.14817524 77.50057125 207.14817524 77.50120544 203.96125793 C77.49162811 202.74878387 77.48205078 201.53630981 77.47218323 200.28709412 C77.48168014 198.95156611 77.49153401 197.61604059 77.50170898 196.28051758 C77.49788395 194.86744617 77.49226333 193.45437865 77.48498535 192.0413208 C77.47304367 189.00196522 77.47351728 185.96295515 77.48357964 182.92359352 C77.49916538 178.11061348 77.48544346 173.29798679 77.46754456 168.48503113 C77.43673003 159.12931124 77.43522208 149.77369948 77.43719482 140.41793823 C77.43858753 128.52768098 77.42811802 116.63750781 77.3886171 104.74731177 C77.37374187 99.97059506 77.37391055 95.19419271 77.38609493 90.41747153 C77.39083189 87.43420822 77.38324559 84.45106322 77.37255096 81.46781921 C77.36902796 79.44205476 77.38037008 77.41628117 77.39228821 75.39054871 C77.34610899 67.0084361 76.90737753 58.5774 71.8125 51.5625 C66.10634527 46.36355902 60.26704451 45.46697643 52.671875 45.71875 C45.42527834 46.48154965 39.84608718 49.56202431 35 55 C24.37189385 70.39585471 27.85657342 95.49437704 27.83133507 113.16332245 C27.8240886 117.18154561 27.80871655 121.19965283 27.78999329 125.21783447 C27.78366026 126.60236737 27.77733459 127.9869003 27.77101612 129.37143326 C27.76785031 130.06356556 27.7646845 130.75569787 27.76142275 131.46880388 C27.71954502 140.79689769 27.68628244 150.12494295 27.67407227 159.453125 C27.66569841 165.78630978 27.64325868 172.11927565 27.6047166 178.45235085 C27.58498193 181.79247804 27.57475988 185.13199134 27.57755089 188.47222137 C27.5798918 192.18201627 27.5578367 195.89091222 27.5300293 199.60058594 C27.53663071 200.70185822 27.54323212 201.80313049 27.55003357 202.93777466 C27.53133209 204.451129 27.53133209 204.451129 27.51225281 205.99505615 C27.50867028 207.30785868 27.50867028 207.30785868 27.50501537 208.64718246 C26.83171269 211.78403421 25.45166819 213.00022523 23 215 C20.76159668 215.5146637 20.76159668 215.5146637 18.29492188 215.53344727 C16.9032782 215.55720177 16.9032782 215.55720177 15.48352051 215.58143616 C13.99120911 215.57399635 13.99120911 215.57399635 12.46875 215.56640625 C11.44068237 215.57260483 10.41261475 215.57880341 9.35339355 215.58518982 C7.18140612 215.59228869 5.00936427 215.58911285 2.83740234 215.57641602 C-0.48832128 215.5625487 -3.81123274 215.59662367 -7.13671875 215.63476562 C-9.24739652 215.6357168 -11.35807782 215.63385811 -13.46875 215.62890625 C-14.9610614 215.64879356 -14.9610614 215.64879356 -16.48352051 215.66908264 C-17.41128296 215.65654953 -18.33904541 215.64401642 -19.29492188 215.63110352 C-20.5159259 215.62966087 -20.5159259 215.62966087 -21.76159668 215.62818909 C-25.09695633 214.69214842 -26.10261026 212.83459059 -28 210 C-28.49942875 207.23184872 -28.49942875 207.23184872 -28.49879456 204.16453552 C-28.50837189 202.99702255 -28.51794922 201.82950958 -28.52781677 200.62661743 C-28.51807327 199.35434296 -28.50832977 198.08206848 -28.49829102 196.77124023 C-28.50211636 195.41067409 -28.50773724 194.05011199 -28.51501465 192.68955994 C-28.52695531 189.76315698 -28.52648338 186.83711289 -28.51642036 183.91070366 C-28.50082514 179.27359562 -28.51456399 174.63685391 -28.53245544 169.99977112 C-28.56326976 160.98223858 -28.56477851 151.96481819 -28.56280518 142.94724274 C-28.56141261 131.49488612 -28.57194496 120.0426172 -28.6113829 108.59032398 C-28.62622939 103.99145259 -28.62611081 99.39290785 -28.61390507 94.79403198 C-28.60915553 91.91664982 -28.61677374 89.0393896 -28.62744904 86.16202736 C-28.63095779 84.21537112 -28.61965555 82.26870528 -28.60771179 80.32208252 C-28.66575755 70.12380601 -29.68260699 59.36627724 -36 51 C-41.34210757 46.25283713 -46.9376868 44.79757701 -54 45 C-60.56278373 45.76798533 -65.41565922 48.49166925 -70.125 53.0625 C-81.09554428 70.24968605 -78.14054818 94.60569339 -78.16866493 114.08385658 C-78.17591988 118.06434261 -78.19129802 122.04474795 -78.21000671 126.02519226 C-78.21633938 127.39750001 -78.22266505 128.76980778 -78.22898388 130.14211559 C-78.23214969 130.82803323 -78.2353155 131.51395087 -78.23857725 132.22065389 C-78.28043697 141.45885703 -78.31372434 150.69701054 -78.32592773 159.93530273 C-78.33430156 166.21099705 -78.3567391 172.48647042 -78.3952834 178.76205415 C-78.41501377 182.0708084 -78.42524058 185.3791599 -78.42244911 188.68798256 C-78.42010824 192.36174908 -78.44216218 196.03460781 -78.4699707 199.70825195 C-78.46006859 201.34377769 -78.46006859 201.34377769 -78.44996643 203.01234436 C-78.54084372 210.29441953 -78.54084372 210.29441953 -80.73905945 213.6723938 C-83.29559016 215.17356818 -84.75350428 215.51097122 -87.70507812 215.53344727 C-89.0967218 215.55720177 -89.0967218 215.55720177 -90.51647949 215.58143616 C-92.00879089 215.57399635 -92.00879089 215.57399635 -93.53125 215.56640625 C-94.55931763 215.57260483 -95.58738525 215.57880341 -96.64660645 215.58518982 C-98.81859388 215.59228869 -100.99063573 215.58911285 -103.16259766 215.57641602 C-106.48832128 215.5625487 -109.81123274 215.59662367 -113.13671875 215.63476562 C-115.24739652 215.6357168 -117.35807782 215.63385811 -119.46875 215.62890625 C-120.9610614 215.64879356 -120.9610614 215.64879356 -122.48352051 215.66908264 C-123.41128296 215.65654953 -124.33904541 215.64401642 -125.29492188 215.63110352 C-126.5159259 215.62966087 -126.5159259 215.62966087 -127.76159668 215.62818909 C-131.17872409 214.66920099 -132.1195871 212.9710581 -134 210 C-134.38134435 207.06060599 -134.53278002 204.50170752 -134.49447632 201.56712341 C-134.49930515 200.72037821 -134.50413398 199.87363301 -134.50910914 199.00122887 C-134.52037703 196.16513714 -134.5030634 193.32994767 -134.48583984 190.49389648 C-134.48798577 188.46026363 -134.49186356 186.42663197 -134.49734497 184.39300537 C-134.50704295 178.87036104 -134.49172961 173.34803972 -134.47143888 167.82543445 C-134.45388042 162.04972875 -134.45739272 156.27403322 -134.4581604 150.49830627 C-134.45628706 140.79967844 -134.43891788 131.10117573 -134.41162109 121.40258789 C-134.38016113 110.18322776 -134.36962519 98.96400463 -134.3710922 87.74460357 C-134.37231216 76.95854693 -134.3621073 66.17253499 -134.34550858 55.38649178 C-134.33844052 50.79287429 -134.33478174 46.19927261 -134.33372116 41.60564995 C-134.3317146 36.19906969 -134.31952385 30.79260482 -134.29938889 25.38606262 C-134.29353901 23.39946257 -134.29108813 21.41284925 -134.29224396 19.42624092 C-134.29322303 16.71933493 -134.28193726 14.01275375 -134.26742554 11.30589294 C-134.27207134 10.12034645 -134.27207134 10.12034645 -134.276811 8.91084951 C-134.24341919 5.15197519 -134.21410285 2.13603348 -132 -1 C-129.27100865 -2.80266085 -127.09777876 -3.2534905 -123.86157227 -3.2746582 C-122.65495689 -3.28895622 -122.65495689 -3.28895622 -121.42396545 -3.30354309 C-120.13322365 -3.30217598 -120.13322365 -3.30217598 -118.81640625 -3.30078125 C-117.47762672 -3.30720894 -117.47762672 -3.30720894 -116.11180115 -3.31376648 C-114.22647957 -3.31950264 -112.34113586 -3.3200153 -110.45581055 -3.31567383 C-107.57627483 -3.31251511 -104.69776803 -3.33597732 -101.81835938 -3.36132812 C-99.98437629 -3.36360136 -98.15039046 -3.3643045 -96.31640625 -3.36328125 C-95.45793594 -3.372491 -94.59946564 -3.38170074 -93.71498108 -3.39118958 C-88.99754092 -3.3548036 -85.81920639 -3.09030348 -82 0 C-80.71394339 2.57211322 -80.78956059 4.56906966 -80.68359375 7.4453125 C-80.64169922 8.52167969 -80.59980469 9.59804688 -80.55664062 10.70703125 C-80.51732422 11.83496094 -80.47800781 12.96289062 -80.4375 14.125 C-80.39431641 15.26066406 -80.35113281 16.39632813 -80.30664062 17.56640625 C-80.2003396 20.37747768 -80.09830595 23.18863945 -80 26 C-79.65275879 25.27868896 -79.30551758 24.55737793 -78.94775391 23.81420898 C-72.05088881 9.78131977 -61.99092035 0.44432599 -47.1875 -4.8125 C-32.60989093 -9.46492843 -12.94530546 -8.73998118 0 0 Z " fill="#211E1E" transform="translate(352,9)"/>
<path d="M0 0 C13.25418579 11.40476451 19.51363829 24.60312266 21 42 C21.31271148 48.38057377 21.29898951 54.77007626 21.30496025 61.15690804 C21.30866864 64.34963485 21.32551382 67.54206324 21.34571838 70.73472595 C21.40071868 79.80266758 21.43180055 88.87065059 21.45629883 97.9387207 C21.47224884 103.51053605 21.50253517 109.08213471 21.54106331 114.6538372 C21.55263654 116.76233037 21.55864298 118.87086236 21.55874443 120.97938728 C21.55998419 139.87767306 23.7444217 154.22064787 35.80078125 169.44140625 C38.47341174 172.91495532 38.45952941 175.67769369 38 180 C36.24359297 182.17635077 34.80969569 183.64799183 32.6875 185.375 C32.14569092 185.84268799 31.60388184 186.31037598 31.0456543 186.79223633 C29.38172554 188.2180115 27.69568086 189.61221646 26 191 C25.03320312 191.80050781 24.06640625 192.60101563 23.0703125 193.42578125 C21.25733171 194.91263093 19.43718226 196.39078998 17.609375 197.859375 C14.28976436 200.5826484 11.12372741 203.4556167 7.97265625 206.37109375 C4.64573833 209.11827151 3.0377486 210.02513578 -1.38671875 209.91796875 C-12.84673699 207.00650466 -20.83669864 193.3404014 -27 184 C-28.3921875 185.2065625 -28.3921875 185.2065625 -29.8125 186.4375 C-30.45960938 186.98535156 -31.10671875 187.53320312 -31.7734375 188.09765625 C-33.31805973 189.41735981 -34.84296826 190.76035177 -36.3515625 192.12109375 C-55.26242603 208.60382526 -77.50418224 212.53806076 -102 211 C-116.59665425 209.21212062 -129.03548256 202.79772794 -139 192 C-151.14075118 176.30075278 -153.77973928 157.15731115 -151.77734375 137.85351562 C-149.46737386 120.98422848 -141.21128334 104.90931731 -128 94 C-100.73210228 74.86402609 -67.33954608 72.30829199 -35 70 C-35.22239555 66.18537384 -35.48297782 62.37424159 -35.75 58.5625 C-35.811875 57.49322266 -35.87375 56.42394531 -35.9375 55.32226562 C-36.44612674 48.39222628 -37.85542718 43.16266834 -41 37 C-41.33 36.01 -41.66 35.02 -42 34 C-43.80971805 32.87575164 -43.80971805 32.87575164 -46 32 C-47.06734375 31.47019531 -47.06734375 31.47019531 -48.15625 30.9296875 C-57.23821547 26.84280304 -66.26619109 26.71485728 -75.68359375 29.96484375 C-82.84956201 33.16717358 -87.65817554 37.91790278 -91 45 C-91.80092591 47.2932171 -92.51595775 49.57153453 -93.12890625 51.921875 C-94.32303137 54.77063985 -95.50083637 56.16396437 -98 58 C-101.1953125 58.27734375 -101.1953125 58.27734375 -105.125 57.9375 C-106.19947388 57.84722534 -106.19947388 57.84722534 -107.2956543 57.75512695 C-108.92553966 57.61062095 -110.55435656 57.45373914 -112.18212891 57.28710938 C-114.21179098 57.08030963 -116.24295502 56.88806548 -118.27490234 56.70507812 C-121.78995745 56.38807834 -125.30105687 56.04214943 -128.8125 55.6875 C-129.95154785 55.58236084 -131.0905957 55.47722168 -132.26416016 55.36889648 C-133.33843262 55.25102783 -134.41270508 55.13315918 -135.51953125 55.01171875 C-136.47964111 54.91334717 -137.43975098 54.81497559 -138.42895508 54.71362305 C-141.60037223 53.83335979 -142.91331472 52.50098434 -145 50 C-147.62784501 44.38101343 -143.91148996 36.59068523 -142 31 C-138.79329859 23.13068101 -134.59199801 16.38203746 -129 10 C-128.46761719 9.38511719 -127.93523438 8.77023438 -127.38671875 8.13671875 C-98.04589291 -23.44493388 -33.30167692 -24.7494953 0 0 Z M-85 117 C-86.77104443 119.29974268 -86.77104443 119.29974268 -88.1875 121.8125 C-88.92033203 123.02873047 -88.92033203 123.02873047 -89.66796875 124.26953125 C-93.94678221 133.04047145 -94.51887369 143.58788999 -92.27734375 153.05078125 C-89.83761471 159.56001785 -86.51476096 164.7512916 -80.4375 168.375 C-74.42927335 171.07303385 -67.81630497 171.01248907 -61.51171875 169.33984375 C-51.31508764 165.27175776 -44.54878636 157.23765638 -39.8125 147.578125 C-34.05904964 133.61754693 -34.70717866 117.82001347 -35 103 C-53.03828316 102.30023902 -70.98922244 104.36655311 -85 117 Z " fill="#211E1E" transform="translate(671,16)"/>
<path d="M0 0 C11.38174314 10.68069375 16.8912813 25.57292363 17.38476562 40.93551636 C17.48427578 45.68855029 17.51098024 50.44147306 17.52302551 55.19544792 C17.53139796 58.39641228 17.55197851 61.59710256 17.57556152 64.79798889 C17.62352272 71.59445131 17.6566213 78.39094129 17.6875 85.1875 C17.72331942 93.06707518 17.76542131 100.94651448 17.82344055 108.82596016 C17.84332895 111.9609733 17.85179094 115.09587912 17.85974121 118.23094177 C17.96168345 137.35523196 19.95504526 151.36640222 32.6484375 166.484375 C34.7038463 170.17785072 35.20660547 173.11923951 34.1875 177.25 C32.26055795 179.67322919 30.71864068 181.27830304 28.375 183.1875 C27.7862207 183.69764648 27.19744141 184.20779297 26.59082031 184.73339844 C24.80984996 186.26501376 23.00437879 187.76125992 21.1875 189.25 C19.70443359 190.48169922 19.70443359 190.48169922 18.19140625 191.73828125 C16.38843653 193.21901808 14.57493385 194.68704397 12.75 196.140625 C10.19748526 198.24178043 7.83034497 200.47033013 5.4375 202.75 C2.59087952 205.29670868 1.17432174 206.25417311 -2.5625 207.4375 C-6.38699943 207.2168558 -7.79607769 206.58772729 -10.8125 204.25 C-11.33457031 203.858125 -11.85664063 203.46625 -12.39453125 203.0625 C-19.45091393 197.45562256 -25.18873931 189.95626782 -29.8125 182.25 C-29.8125 181.59 -29.8125 180.93 -29.8125 180.25 C-30.2971875 180.67410156 -30.781875 181.09820312 -31.28125 181.53515625 C-32.70225144 182.77853251 -34.12562779 184.01919745 -35.55078125 185.2578125 C-36.9411535 186.48249272 -38.31723667 187.72392117 -39.66796875 188.9921875 C-57.87551216 205.84095901 -78.97433257 209.20878158 -102.97460938 208.42919922 C-117.87088674 207.48857055 -131.68873943 201.29410244 -141.8125 190.25 C-154.11344778 174.37780932 -157.65925087 154.93962291 -155.34765625 135.30078125 C-152.52846478 116.7085058 -143.89437998 100.83006395 -128.92578125 89.3125 C-103.72920425 72.62016292 -68.68840818 67.25 -38.8125 67.25 C-38.92769181 64.27016976 -39.05440802 61.29154208 -39.1875 58.3125 C-39.2184375 57.48169922 -39.249375 56.65089844 -39.28125 55.79492188 C-39.70768654 46.6620726 -40.86825423 38.49147068 -46.8125 31.25 C-54.25302792 25.10347694 -62.51260024 24.5017322 -71.8125 25.25 C-79.61641567 26.58621002 -86.56236984 29.72581882 -91.27734375 36.2890625 C-94.02963711 41.02401096 -95.99714543 46.02870987 -97.8203125 51.18359375 C-98.8125 53.25 -98.8125 53.25 -101.8125 55.25 C-107.14865001 55.40204769 -112.50072259 54.74566461 -117.8125 54.25 C-119.40433105 54.10836426 -119.40433105 54.10836426 -121.02832031 53.96386719 C-124.52148084 53.64432857 -128.01054368 53.29510078 -131.5 52.9375 C-132.63445557 52.83219971 -133.76891113 52.72689941 -134.93774414 52.6184082 C-145.24104726 51.49159288 -145.24104726 51.49159288 -148.8125 47.25 C-150.81412826 36.6413702 -144.3142814 23.89810009 -138.8046875 15.08984375 C-125.50426965 -3.8697715 -105.52567258 -13.25976655 -83.10546875 -17.44140625 C-54.54573746 -21.57923966 -23.03846601 -18.99799305 0 0 Z M-88.75 114.921875 C-95.59479507 122.64819671 -97.27420641 132.15618283 -97.05859375 142.2265625 C-96.39764226 150.34682372 -93.79969664 157.55165934 -87.8125 163.25 C-81.47740176 167.69965233 -74.34156372 168.36213621 -66.8125 167.25 C-57.22221805 164.24698242 -50.49160973 157.81548497 -45.8659668 149.03295898 C-39.68034841 136.7381682 -38.64939 125.76269687 -38.75 112.25 C-38.75451172 111.09371094 -38.75902344 109.93742188 -38.76367188 108.74609375 C-38.77537471 105.91400775 -38.79177004 103.08203189 -38.8125 100.25 C-56.93715709 99.5558642 -75.18804912 101.79460203 -88.75 114.921875 Z " fill="#211E1E" transform="translate(155.8125,18.75)"/>
<path d="M0 0 C0.71542969 0.53367187 1.43085937 1.06734375 2.16796875 1.6171875 C2.87308594 2.13023438 3.57820313 2.64328125 4.3046875 3.171875 C15.13215784 11.79260377 20.41476895 24.53675555 22.85546875 37.8046875 C23.03480957 38.77365967 23.03480957 38.77365967 23.21777344 39.76220703 C25.24653037 51.9435693 25.31974717 64.42025235 25.3449707 76.73486328 C25.35125875 78.17722223 25.35790747 79.61957964 25.36488342 81.06193542 C25.38560267 85.72877947 25.39623706 90.39562278 25.40625 95.0625 C25.410306 96.68046967 25.41442315 98.29843918 25.41860008 99.91640854 C25.43756013 107.50412844 25.45182457 115.09183902 25.46021205 122.67957795 C25.47002951 131.4120889 25.49650371 140.14434945 25.53671294 148.87677205 C25.56684465 155.65416874 25.58167705 162.43149326 25.58499306 169.20895565 C25.58734153 173.24715653 25.59627994 177.28508691 25.62145424 181.32321548 C25.64469675 185.11062185 25.64898402 188.89757846 25.63869286 192.68503761 C25.6381969 194.07298974 25.64453513 195.46096388 25.6582489 196.84884834 C25.67593349 198.74453771 25.66648751 200.64042208 25.65571594 202.53616333 C25.6581043 203.59610064 25.66049265 204.65603794 25.66295338 205.74809456 C25.04229489 209.34563433 23.6955794 211.03042968 21.16796875 213.6171875 C18.92956543 214.23864746 18.92956543 214.23864746 16.46289062 214.23242188 C15.53512817 214.24172729 14.60736572 214.25103271 13.65148926 214.26062012 C12.65661499 214.24422485 11.66174072 214.22782959 10.63671875 214.2109375 C9.09461731 214.21099792 9.09461731 214.21099792 7.5213623 214.21105957 C5.349303 214.20570175 3.17724436 214.188108 1.00537109 214.15917969 C-2.31993837 214.11733966 -5.64322183 214.11810975 -8.96875 214.125 C-11.07944116 214.11450702 -13.19012188 214.10156834 -15.30078125 214.0859375 C-16.29565552 214.08573608 -17.29052979 214.08553467 -18.31555176 214.08532715 C-19.24331421 214.06941528 -20.17107666 214.05350342 -21.12695312 214.03710938 C-21.94095581 214.02869019 -22.7549585 214.020271 -23.59362793 214.01159668 C-26.39475981 213.5180341 -27.77072881 212.55356252 -29.83203125 210.6171875 C-30.87556801 207.48657723 -30.96179203 205.30067688 -30.97006226 202.01550293 C-30.97551559 200.84929413 -30.98096893 199.68308533 -30.98658752 198.48153687 C-30.98762985 197.20050079 -30.98867218 195.91946472 -30.98974609 194.59960938 C-30.99441521 193.2377201 -30.99955893 191.87583237 -31.00514221 190.51394653 C-31.0164226 187.57889452 -31.02485734 184.64385265 -31.03126144 181.70878601 C-31.04195425 177.05960325 -31.06220526 172.41049295 -31.0843811 167.76135254 C-31.14625341 154.53982894 -31.20022041 141.3183087 -31.23339844 128.09667969 C-31.25179901 120.79597119 -31.28080702 113.49538336 -31.32140315 106.19476366 C-31.34239079 102.33512911 -31.35791856 98.47564613 -31.36021042 94.61595154 C-31.36237296 90.97806196 -31.37840393 87.34048733 -31.40460014 83.70269394 C-31.41511025 81.747513 -31.41106475 79.79227032 -31.40641785 77.83706665 C-31.50185706 67.60943097 -32.90789448 58.15491402 -38.83203125 49.6171875 C-43.37553245 45.30668636 -47.36846066 43.53029742 -53.58203125 43.2421875 C-60.91906677 43.43842322 -66.47437394 45.82199202 -71.58203125 51.1171875 C-80.6893728 62.48551639 -82.13411384 76.4745118 -82.10327148 90.49902344 C-82.1111116 92.3740731 -82.1111116 92.3740731 -82.11911011 94.28700256 C-82.12930633 96.98521206 -82.13606317 99.68316774 -82.1369915 102.38137054 C-82.13894682 106.65171831 -82.15707627 110.92190704 -82.17774963 115.19219971 C-82.22672494 125.79095077 -82.25784406 136.38974431 -82.27905273 146.98858643 C-82.29558977 155.24383764 -82.318412 163.49895029 -82.36207348 171.75410867 C-82.38379958 175.99584681 -82.39191268 180.23732126 -82.38968074 184.47911119 C-82.39174249 187.73710782 -82.4131045 190.9949899 -82.43139648 194.25292969 C-82.42681931 195.42189285 -82.42224213 196.59085602 -82.41752625 197.79524231 C-82.50749573 207.859381 -82.50749573 207.859381 -85.83203125 212.6171875 C-88.19365297 213.79799836 -89.67516046 213.76865578 -92.31005859 213.81005859 C-93.23797211 213.82612152 -94.16588562 213.84218445 -95.12191772 213.85873413 C-99.36252142 213.90313146 -103.60296841 213.94423743 -107.84375 213.96728516 C-110.0824624 213.98386099 -112.32112153 214.01117214 -114.55957031 214.04931641 C-117.78348301 214.10398317 -121.00615549 214.12594259 -124.23046875 214.140625 C-125.23161713 214.16329437 -126.2327655 214.18596375 -127.26425171 214.20932007 C-128.19846954 214.20647003 -129.13268738 214.20362 -130.09521484 214.20068359 C-130.91524994 214.20877045 -131.73528503 214.2168573 -132.58016968 214.22518921 C-136.02010629 213.29640772 -136.94681822 211.59945315 -138.83203125 208.6171875 C-139.21756697 205.66650647 -139.37316258 203.09300015 -139.33996582 200.14634705 C-139.34620578 199.29551829 -139.35244575 198.44468954 -139.3588748 197.5680781 C-139.37482478 194.71819889 -139.3621928 191.86917261 -139.34960938 189.01928711 C-139.35502956 186.97579957 -139.36215163 184.93231594 -139.37084961 182.88883972 C-139.38909697 177.33936012 -139.38200979 171.79017771 -139.36933327 166.24069285 C-139.35921436 160.43694803 -139.36859574 154.63322884 -139.37487793 148.82948303 C-139.38215697 139.08378525 -139.37255922 129.33820868 -139.35351562 119.5925293 C-139.33174037 108.31857086 -139.33880208 97.0449017 -139.36082125 85.77095026 C-139.37896059 76.09695644 -139.38154091 66.4230498 -139.37106657 56.74904448 C-139.36482438 50.96865919 -139.36401612 45.18840997 -139.37721252 39.40803337 C-139.38874923 33.97510134 -139.38078503 28.54254312 -139.3576355 23.10965157 C-139.35233703 21.11337531 -139.35388154 19.1170677 -139.36268616 17.12080383 C-139.37358014 14.40045626 -139.35995288 11.68131456 -139.33996582 8.96104431 C-139.34888871 8.16678903 -139.35781159 7.37253375 -139.36700487 6.55421013 C-139.3160464 2.99074324 -139.14147441 1.01625376 -136.92528534 -1.84180355 C-132.71144453 -4.94394315 -128.87024692 -4.54433614 -123.80859375 -4.55078125 C-122.46201187 -4.55577385 -122.46201187 -4.55577385 -121.08822632 -4.56086731 C-119.18675245 -4.56593546 -117.28526968 -4.56827567 -115.38378906 -4.56811523 C-112.47576192 -4.57029844 -109.56811606 -4.58844621 -106.66015625 -4.60742188 C-104.81380338 -4.61035647 -102.96744871 -4.61234082 -101.12109375 -4.61328125 C-100.25118805 -4.62046677 -99.38128235 -4.62765228 -98.48501587 -4.63505554 C-97.67092255 -4.63197891 -96.85682922 -4.62890228 -96.01806641 -4.62573242 C-95.30462067 -4.62715744 -94.59117493 -4.62858246 -93.85610962 -4.63005066 C-91.47297226 -4.33895398 -89.88126625 -3.61795297 -87.83203125 -2.3828125 C-85.57811423 0.8303903 -85.53128157 3.84267659 -85.41796875 7.6953125 C-85.35996094 9.43554688 -85.35996094 9.43554688 -85.30078125 11.2109375 C-85.26984375 12.4175 -85.23890625 13.6240625 -85.20703125 14.8671875 C-85.14902344 16.70023438 -85.14902344 16.70023438 -85.08984375 18.5703125 C-84.99561017 21.5857869 -84.9099967 24.60125578 -84.83203125 27.6171875 C-84.41953125 26.79476562 -84.00703125 25.97234375 -83.58203125 25.125 C-78.10997913 14.54732783 -72.15341001 5.07059394 -61.83203125 -1.3828125 C-60.92904297 -1.94935547 -60.92904297 -1.94935547 -60.0078125 -2.52734375 C-42.62805547 -12.25563542 -16.49782187 -11.10908609 0 0 Z " fill="#211E1E" transform="translate(1254.83203125,10.3828125)"/>
<path d="M0 0 C24.66954225 20.5745052 35.5000272 49.94242908 38.62744141 81.27197266 C41.71698287 115.85401558 35.99774718 153.21239505 13.12744141 180.64697266 C-2.84660888 198.96120596 -23.18778659 209.00145244 -47.36181641 210.66992188 C-67.75505245 211.61665362 -88.69212958 206.02359511 -104.48974609 192.65869141 C-105.17294922 192.03607422 -105.85615234 191.41345703 -106.56005859 190.77197266 C-107.77048828 189.69882812 -107.77048828 189.69882812 -109.00537109 188.60400391 C-131.2175034 167.78437531 -140.47316536 135.60843953 -141.67382812 105.96289062 C-142.59423137 70.68076637 -136.76494788 34.48251661 -111.71069336 7.89892578 C-83.25794609 -21.25909847 -32.57520764 -25.64214311 0 0 Z M-69.74365234 33.56884766 C-87.67488132 55.31769312 -83.78671199 94.63953127 -81.56005859 120.77197266 C-80.02139826 135.1585801 -77.47389087 152.22374678 -66.56005859 162.68994141 C-60.9586313 166.90101443 -55.51865832 168.18485629 -48.56005859 167.77197266 C-41.50807136 166.6668955 -36.07595464 163.25358985 -31.56005859 157.77197266 C-22.51970835 143.49582838 -20.43817811 127.43254086 -20.35693359 110.82275391 C-20.34838348 109.42188789 -20.34838348 109.42188789 -20.33966064 107.99272156 C-20.33026325 106.02030549 -20.32369775 104.0478741 -20.31982422 102.07543945 C-20.31023139 99.13739453 -20.27920451 96.200085 -20.24755859 93.26220703 C-19.7407977 62.33181578 -19.7407977 62.33181578 -31.56005859 34.77197266 C-37.45432288 28.94821392 -42.56976639 26.40660934 -50.87646484 25.75244141 C-58.31268844 25.80656239 -64.40546478 28.43556022 -69.74365234 33.56884766 Z " fill="#211E1E" transform="translate(1048.56005859375,18.22802734375)"/>
<path d="M0 0 C5.81306458 0.18015696 10.68415416 3.68748317 15.59375 6.5 C17.76559588 7.70838568 19.93747075 8.91671924 22.109375 10.125 C24.10459438 11.24924126 26.09943517 12.37415491 28.09375 13.5 C97.24054806 52.23236622 177.49573122 74.94995697 290.06646729 88.33251953 C291.93072028 88.48653158 293.79426067 88.64910629 295.65771484 88.8125 C310.18589423 89.91715451 324.78183551 89.74593128 339.34375 89.75 C340.43037682 89.75066278 340.43037682 89.75066278 341.53895569 89.75133896 C363.47138025 89.75834668 385.22833653 89.43607821 407.0222168 86.75323486 C409.20200931 86.48676583 411.3830114 86.23257401 413.56445312 85.97998047 C459.01007479 80.66536607 503.64805562 70.87126962 547.09375 56.5 C548.75905762 55.95110107 548.75905762 55.95110107 550.45800781 55.39111328 C560.3956297 52.09168297 570.27187902 48.69902198 579.95703125 44.7109375 C581.08012695 44.24872803 582.20322266 43.78651855 583.36035156 43.31030273 C585.49272161 42.42213112 587.61892498 41.51894234 589.73730469 40.59790039 C595.86339023 38.02660237 600.44138817 36.90416838 607.09375 37.5 C609.99569136 38.73486866 611.49690584 39.76750943 613.46875 42.1875 C614.47720514 45.91878401 614.48581493 48.93160822 613.09375 52.5 C568.02426772 109.03552186 457.26117017 129.52115229 389.71875 137.75 C389.0357785 137.83326538 388.35280701 137.91653076 387.6491394 138.00231934 C369.65465575 140.16887924 351.95276386 140.74102173 333.84375 140.75 C332.00861847 140.75101212 332.00861847 140.75101212 330.13641357 140.75204468 C310.28047995 140.73469235 290.78924011 140.05586556 271.09375 137.5 C270.41538086 137.41278687 269.73701172 137.32557373 269.03808594 137.23571777 C239.46285086 133.40819287 210.61912838 127.25133569 182.09375 118.5 C181.08957031 118.19368652 180.08539063 117.88737305 179.05078125 117.57177734 C124.94811056 100.85881949 73.91194059 74.05224379 29.09375 39.5 C28.55041016 39.08282715 28.00707031 38.6656543 27.44726562 38.23583984 C19.47315148 32.10068189 11.74820315 25.72602161 4.15234375 19.12890625 C2.22476388 17.45520863 0.28110276 15.85641945 -1.72265625 14.26953125 C-4.04252173 12.38956871 -5.06651165 11.3551104 -5.90625 8.5 C-5.51881046 3.65700578 -5.21261049 0.8967932 0 0 Z " fill="#FF9900" transform="translate(185.90625,245.5)"/>
<path d="M0 0 C1.16087128 -0.01265396 2.32174255 -0.02530792 3.51779175 -0.03834534 C5.4223967 -0.02080704 5.4223967 -0.02080704 7.36547852 -0.00291443 C8.71917661 -0.00805374 10.07286802 -0.01533511 11.42654419 -0.02459717 C15.10026429 -0.0431187 18.77325906 -0.03016869 22.44694901 -0.01050687 C26.29146422 0.00587517 30.13593333 -0.00293263 33.98046875 -0.00802612 C40.43672272 -0.01254761 46.89268703 0.0033259 53.34887695 0.03126526 C60.81305184 0.06331765 68.27670427 0.06330176 75.74091625 0.04605049 C82.92134845 0.0301864 90.10158912 0.03691812 97.28201294 0.0539875 C100.3377899 0.06085996 103.39341342 0.05982363 106.44918823 0.05244255 C110.04776691 0.04478094 113.64575108 0.05690069 117.24422836 0.08429146 C119.19478746 0.09446282 121.14541793 0.08499144 123.09597778 0.07496643 C124.8372847 0.09405312 124.8372847 0.09405312 126.61376953 0.11352539 C127.62254654 0.11633231 128.63132355 0.11913923 129.67066956 0.12203121 C133.04114015 0.76916739 134.2287098 1.9428647 136.30688477 4.62818909 C137.06349228 9.05921897 136.96536752 13.51073566 136.93823242 17.99757385 C136.93197052 20.16106109 136.9786051 22.31890632 137.02954102 24.48170471 C137.11483441 33.54252752 135.61430413 40.08911814 130.30688477 47.62818909 C129.82719238 48.34112122 129.3475 49.05405334 128.85327148 49.78858948 C127.42348408 51.8547434 125.93901755 53.86788192 124.43188477 55.87818909 C123.2854812 57.43670943 122.14104503 58.99667831 120.99829102 60.55787659 C120.39903809 61.37610901 119.79978516 62.19434143 119.18237305 63.03736877 C115.84566722 67.64673121 112.6097888 72.32586204 109.36938477 77.00318909 C108.69488281 77.97586731 108.02038086 78.94854553 107.32543945 79.95069885 C105.97318839 81.90083668 104.62113566 83.85111206 103.26928711 85.80152893 C100.25189099 90.14781063 97.21806089 94.48251399 94.18188477 98.81568909 C93.6136499 99.6267511 93.04541504 100.43781311 92.45996094 101.27345276 C91.31786173 102.90346741 90.17569071 104.53343175 89.03344727 106.16334534 C87.26918457 108.68200996 85.50655251 111.20180837 83.74438477 113.72193909 C76.29300145 124.37709166 68.81471009 135.01272911 61.30688477 145.62818909 C62.13599365 145.69288391 62.96510254 145.75757874 63.81933594 145.82423401 C123.51260477 150.6332139 123.51260477 150.6332139 138.30688477 166.62818909 C140.92781067 170.47695787 140.64772925 174.6719099 140.67797852 179.15553284 C140.68700699 179.98146439 140.69603546 180.80739594 140.70533752 181.65835571 C140.71982201 183.40241378 140.72872229 185.14652597 140.73242188 186.89064026 C140.74432998 189.55343813 140.79353898 192.21392612 140.84399414 194.87623596 C140.85345777 196.57349031 140.86069309 198.27075885 140.86547852 199.96803284 C140.88501083 200.76088181 140.90454315 201.55373077 140.92466736 202.37060547 C140.89030702 206.59658518 140.64014179 208.19248833 137.98144531 211.66847229 C135.30688477 213.62818909 135.30688477 213.62818909 131.95532227 213.64381409 C128.07687513 212.56416071 124.54896827 211.10964545 120.93188477 209.37818909 C112.59148941 205.58337745 104.20201278 202.80746476 95.30688477 200.62818909 C94.65155762 200.46302795 93.99623047 200.29786682 93.32104492 200.12770081 C61.17632495 192.39729936 24.13699442 197.39377582 -4.92236328 212.81910706 C-7.72235522 214.09846364 -9.69410907 214.24162217 -12.69311523 213.62818909 C-15.82907202 210.76537557 -16.94770732 208.50732691 -17.21069336 204.36378479 C-17.23700224 202.67737902 -17.24021597 200.99050683 -17.22436523 199.30397034 C-17.22819214 198.40252792 -17.23201904 197.50108551 -17.23596191 196.57232666 C-17.23867902 194.66686384 -17.23133191 192.76136359 -17.21459961 190.85597229 C-17.19331155 187.96732796 -17.21434261 185.08120628 -17.23999023 182.19264221 C-17.27268559 164.14284772 -17.27268559 164.14284772 -12.69311523 156.62818909 C-12.25708984 155.90188293 -11.82106445 155.17557678 -11.37182617 154.42726135 C-9.91950224 152.14920892 -8.38869385 149.95119141 -6.81811523 147.75318909 C-5.96600464 146.53454163 -5.96600464 146.53454163 -5.09667969 145.29127502 C-3.90122287 143.58380704 -2.70137537 141.87940531 -1.49731445 140.17799377 C0.24754059 137.71205791 1.98053133 135.23828416 3.70922852 132.76100159 C6.01464693 129.45835876 8.32478283 126.1591063 10.63891602 122.86256409 C14.54411867 117.29546082 18.42631565 111.71247954 22.30688477 106.12818909 C27.29428505 98.95264085 32.2918914 91.78447999 37.30688477 84.62818909 C42.52677338 77.17788839 47.73417917 69.7189844 52.93188477 62.25318909 C53.60735352 61.28381409 54.28282227 60.31443909 54.97875977 59.31568909 C55.61555664 58.40045471 56.25235352 57.48522034 56.90844727 56.54225159 C57.46870605 55.73739319 58.02896484 54.93253479 58.60620117 54.10328674 C60.53464991 51.29671004 62.42018963 48.4629597 64.30688477 45.62818909 C63.43880188 45.62676407 62.57071899 45.62533905 61.67633057 45.62387085 C53.49513126 45.60604084 45.31447307 45.56442775 37.13353348 45.49609852 C32.92757284 45.46180821 28.72197619 45.43671545 24.51586914 45.43263245 C20.45659829 45.42835373 16.39814881 45.39992791 12.33913422 45.35475731 C10.79064468 45.3417684 9.24205691 45.3374796 7.69351959 45.34203529 C5.52370038 45.34693204 3.35629052 45.32089771 1.18676758 45.28761292 C-0.66522247 45.27762016 -0.66522247 45.27762016 -2.55462646 45.26742554 C-5.69311523 44.62818909 -5.69311523 44.62818909 -8.09075928 42.31256104 C-10.16946065 38.83018395 -10.26983055 35.82123059 -10.22436523 31.87818909 C-10.23010559 30.77459045 -10.23010559 30.77459045 -10.23596191 29.6486969 C-10.23867426 28.09887823 -10.23136042 26.54901325 -10.21459961 24.99928284 C-10.19317656 22.63495766 -10.21442034 20.27367042 -10.23999023 17.90943909 C-10.23734683 16.39901575 -10.23222159 14.8885943 -10.22436523 13.37818909 C-10.23246216 12.67597229 -10.24055908 11.97375549 -10.24890137 11.2502594 C-10.11285497 4.08370005 -7.35080306 0.00427235 0 0 Z " fill="#211E1E" transform="translate(748.693115234375,5.3718109130859375)"/>
<path d="M0 0 C2.38034909 0.00316148 4.75945145 -0.02041127 7.13964844 -0.0456543 C20.11318643 -0.09909125 37.25440474 -0.09843313 47.66699219 8.71411133 C52.65477503 14.64162137 51.16418242 24.37735756 50.54980469 31.58911133 C47.1135182 64.78572137 33.01526303 101.26214048 7.01464844 123.31567383 C3.72071198 125.42379316 2.09884868 126.41204718 -1.79785156 126.06567383 C-3.98535156 125.31567383 -3.98535156 125.31567383 -4.98535156 124.31567383 C-4.7025395 116.55719618 -1.70536038 109.89337652 1.13964844 102.75317383 C14.84017449 70.57722371 14.84017449 70.57722371 16.13964844 36.56567383 C13.08398966 31.89231334 9.29607757 30.70316792 4.01464844 29.31567383 C-3.16308744 28.14303084 -10.23046754 28.0768243 -17.48535156 28.06567383 C-18.17888733 28.0633374 -18.8724231 28.06100098 -19.5869751 28.05859375 C-32.95967377 28.04178956 -46.07325304 29.16221456 -59.35253906 30.65942383 C-64.92376194 31.27084126 -70.38500339 31.49033095 -75.98535156 31.31567383 C-77.17285156 29.12817383 -77.17285156 29.12817383 -77.98535156 26.31567383 C-73.11235934 15.92763973 -58.24076232 11.08264004 -47.98535156 7.31567383 C-44.96494649 6.29663935 -41.92644592 5.37448945 -38.86035156 4.50317383 C-38.18157959 4.30836426 -37.50280762 4.11355469 -36.8034668 3.9128418 C-24.6746643 0.67488088 -12.48164016 -0.03451498 0 0 Z " fill="#FF9900" transform="translate(808.9853515625,232.684326171875)"/>
</svg>
