<?xml version="1.0" encoding="UTF-8"?>
<svg version="1.1" xmlns="http://www.w3.org/2000/svg" width="2560" height="516">
<path d="M0 0 C1.57343907 1.41657782 3.14004338 2.84084064 4.6953125 4.27734375 C6.75465777 6.16128738 8.84406442 7.98978578 10.95703125 9.8125 C15.22274041 13.53553608 19.24359195 17.46646097 23.234375 21.48046875 C23.90275391 22.14498047 24.57113281 22.80949219 25.25976562 23.49414062 C29.76947378 28.01261401 34.01192394 32.70281191 38.171875 37.54296875 C39.27622414 38.80436651 40.3816772 40.06479873 41.48828125 41.32421875 C51.24915073 52.49170214 51.24915073 52.49170214 54.859375 57.41796875 C56.81403363 60.5527798 56.81403363 60.5527798 59.171875 61.54296875 C59.54505859 60.72119141 59.54505859 60.72119141 59.92578125 59.8828125 C64.88784074 50.56534028 72.73542489 42.39076203 79.58935547 34.42871094 C80.78086115 33.0089038 81.94769478 31.56833657 83.10205078 30.11816406 C88.53437881 23.31401135 94.32768293 17.07564579 100.50048828 10.95361328 C102.04566878 9.41916659 103.57983509 7.87428873 105.11328125 6.328125 C135.69916571 -24.30265157 173.78063068 -45.66702221 217.70568848 -45.84082031 C265.18920959 -45.82016071 305.06023747 -22.55682522 337.984375 10.10546875 C344.12562761 16.28943015 349.89630194 22.59488611 355.171875 29.54296875 C356.09857976 30.72946245 357.02569155 31.91563831 357.953125 33.1015625 C413.62942884 105.03305862 436.36151749 199.11296153 436.421875 288.79296875 C436.42288712 290.16326736 436.42288712 290.16326736 436.42391968 291.56124878 C436.36449342 342.62173261 426.78767542 398.60226411 390.0078125 436.734375 C366.46162845 460.05352973 336.10340473 470.95699661 303.09875488 470.86715698 C302.05213684 470.86137131 302.05213684 470.86137131 300.984375 470.85546875 C300.26165405 470.85298126 299.53893311 470.85049377 298.79431152 470.84793091 C257.29259566 470.62761542 224.90384954 454.06527949 195.734375 425.29296875 C160.00735378 388.6409761 133.47320377 343.13007131 107.59849548 299.33082581 C103.98487453 293.21764818 100.33338283 287.12757712 96.671875 281.04296875 C91.41790116 272.30818384 86.20575898 263.5494779 81.01080322 254.77954102 C74.32844992 243.49994098 67.60467493 232.24737088 60.796875 221.04296875 C60.26746307 220.17132584 60.26746307 220.17132584 59.72735596 219.28207397 C55.91583111 213.00999983 52.0780081 206.75658588 48.171875 200.54296875 C44.19620072 205.05059945 41.5922895 210.08061081 38.796875 215.35546875 C34.4137452 223.51659476 29.87651395 231.56302231 25.171875 239.54296875 C20.69928076 247.1392893 16.35426382 254.78305897 12.171875 262.54296875 C7.50712946 271.18902036 2.63952434 279.69644922 -2.34033203 288.16455078 C-5.84177471 294.12301235 -9.29558718 300.10487487 -12.70054626 306.11903381 C-32.51675537 341.11670494 -53.75176806 375.79554265 -79.828125 406.54296875 C-80.71275105 407.61285856 -81.59683423 408.68319738 -82.48046875 409.75390625 C-108.08689098 440.52188974 -139.48349802 465.47006341 -180.3527832 470.34228516 C-216.16480299 473.24567605 -254.94427772 468.03952151 -283.375 444.24853516 C-286.96663777 441.12252122 -290.40129819 437.84775757 -293.828125 434.54296875 C-294.54742187 433.88683594 -295.26671875 433.23070312 -296.0078125 432.5546875 C-326.41335056 404.04186366 -339.41593209 354.88282133 -340.93527222 314.70988464 C-340.9920142 311.60836927 -341.01856466 308.50825864 -341.03125 305.40625 C-341.03826431 304.26100357 -341.04527863 303.11575714 -341.05250549 301.93580627 C-341.06997436 298.24232027 -341.07636154 294.5489946 -341.078125 290.85546875 C-341.07879974 289.59454407 -341.07947449 288.33361938 -341.08016968 287.03448486 C-341.06398203 268.01445476 -340.58870126 249.38910786 -337.828125 230.54296875 C-337.65120117 229.30627441 -337.47427734 228.06958008 -337.29199219 226.79541016 C-334.70940517 209.17449476 -331.217264 191.80063247 -326.828125 174.54296875 C-326.56805664 173.51929199 -326.30798828 172.49561523 -326.04003906 171.44091797 C-311.56858615 115.40610612 -286.18242501 59.72667947 -246.2578125 17.16015625 C-244.31030145 15.06235496 -242.45724465 12.93987102 -240.640625 10.73046875 C-238.00083614 7.60797564 -235.05297469 4.9848761 -231.9375 2.34375 C-230.5499525 1.15919556 -229.18422865 -0.05149461 -227.84375 -1.2890625 C-206.31716316 -21.15664547 -180.02720281 -34.89666858 -151.828125 -42.45703125 C-151.15749023 -42.63782227 -150.48685547 -42.81861328 -149.79589844 -43.00488281 C-96.45836618 -56.4799098 -40.06379693 -34.806807 0 0 Z M149.171875 49.54296875 C147.82467984 50.69699067 146.47100835 51.84351844 145.109375 52.98046875 C135.56630581 61.32095605 127.80240369 71.48356755 120.171875 81.54296875 C119.72199219 82.1359375 119.27210938 82.72890625 118.80859375 83.33984375 C115.52589281 87.69155104 112.33416003 92.1032458 109.171875 96.54296875 C108.33897949 97.69877441 108.33897949 97.69877441 107.48925781 98.87792969 C105.75831859 101.29389125 104.05589698 103.72774895 102.359375 106.16796875 C101.81289307 106.92625977 101.26641113 107.68455078 100.70336914 108.46582031 C97.8129574 112.43028704 97.8129574 112.43028704 97.54296875 117.08984375 C98.08050781 117.899375 98.61804688 118.70890625 99.171875 119.54296875 C99.50952881 120.0932373 99.84718262 120.64350586 100.19506836 121.21044922 C101.43948442 123.22431739 102.73811305 125.19534866 104.046875 127.16796875 C105.04903612 128.69865667 106.05030719 130.22992761 107.05078125 131.76171875 C107.82639404 132.94701172 107.82639404 132.94701172 108.61767578 134.15625 C117.4550893 147.7274964 125.88081544 161.55511459 134.26953125 175.40625 C136.23211984 178.6423047 138.20127269 181.87428846 140.171875 185.10546875 C147.38391795 196.94102976 154.53179268 208.81029459 161.58425903 220.74172974 C169.32449931 233.83497877 177.23289212 246.80314519 185.35693359 259.66308594 C187.86484285 263.64254485 190.35144863 267.63515383 192.83886719 271.62744141 C195.94161277 276.60446273 199.05567409 281.57436415 202.171875 286.54296875 C203.05141846 287.94675781 203.05141846 287.94675781 203.94873047 289.37890625 C220.59581959 315.90280389 237.79573042 342.53446404 259.171875 365.54296875 C259.75710938 366.18234375 260.34234375 366.82171875 260.9453125 367.48046875 C271.904052 379.00515254 285.2507299 385.63325696 301.12109375 386.5 C316.8846451 386.83028393 329.67028304 381.38721787 341.03515625 370.80859375 C363.7314427 347.25679317 361.83177065 306.86068735 361.30371094 276.64208984 C360.37492876 235.45537065 353.42016697 193.16759109 340.07958984 154.19775391 C339.47952493 152.44274962 338.88853029 150.68461506 338.30712891 148.92333984 C331.03603706 126.92961984 321.04053231 104.85776082 308.171875 85.54296875 C307.79144043 84.9715918 307.41100586 84.40021484 307.01904297 83.81152344 C300.74556703 74.48463113 293.71041667 65.87232075 286.171875 57.54296875 C284.95564453 56.19912109 284.95564453 56.19912109 283.71484375 54.828125 C265.59070847 35.80229145 240.52713071 22.03406818 213.98413086 21.25756836 C188.39268228 20.94049605 167.17646844 32.15922336 149.171875 49.54296875 Z M-187.890625 77.23046875 C-236.24327661 134.31596892 -254.5584495 214.3941459 -256.828125 287.54296875 C-256.87066406 288.78433594 -256.91320312 290.02570313 -256.95703125 291.3046875 C-257.45106646 319.13533766 -252.68443103 350.43295087 -233.390625 371.73046875 C-222.63334247 381.91901277 -209.52234898 386.58112656 -194.828125 386.54296875 C-170.25435383 385.50701565 -153.224484 370.92986885 -137.203125 353.73046875 C-131.03042759 346.64458202 -125.43235201 339.08002559 -119.828125 331.54296875 C-119.30202637 330.83640137 -118.77592773 330.12983398 -118.23388672 329.40185547 C-109.39986447 317.48267422 -101.16814712 305.18502219 -92.99316406 292.80810547 C-90.74006709 289.41016693 -88.47039863 286.0238523 -86.1953125 282.640625 C-78.67225669 271.44324781 -71.27466955 260.20748721 -64.3203125 248.64453125 C-61.37335817 243.75763369 -58.26593132 238.97982051 -55.15136719 234.19873047 C-51.44319547 228.50394538 -47.78402727 222.77938934 -44.140625 217.04296875 C-33.86942054 200.88474831 -23.59468008 184.73025729 -13.10699463 168.71139526 C-12.02771388 167.06144958 -10.95109723 165.40976223 -9.87451172 163.75805664 C-6.70905754 158.9075966 -3.5244831 154.07700893 -0.2421875 149.3046875 C0.28785889 148.52222656 0.81790527 147.73976563 1.36401367 146.93359375 C2.3282054 145.51304418 3.30659761 144.10198059 4.30200195 142.703125 C6.73804483 139.1325701 6.73804483 139.1325701 6.71484375 134.95703125 C4.87637478 132.08064182 2.91970095 129.40632864 0.796875 126.73046875 C-0.11055743 125.57775276 -1.01675311 124.42406238 -1.921875 123.26953125 C-2.39753906 122.66399414 -2.87320313 122.05845703 -3.36328125 121.43457031 C-5.35429952 118.86350205 -7.27952328 116.24617273 -9.20849609 113.62841797 C-31.61914536 83.2960691 -59.07001342 51.69012745 -96.828125 41.54296875 C-97.64667969 41.31867188 -98.46523437 41.094375 -99.30859375 40.86328125 C-134.54605927 32.88704874 -165.44149352 51.38182472 -187.890625 77.23046875 Z " fill="#0075F0" transform="translate(340.828125,45.45703125)"/>
<path d="M0 0 C32.34 0 64.68 0 98 0 C100.95359378 4.72575005 103.79618083 9.31308945 106.4609375 14.17578125 C107.08935547 15.31917969 107.71777344 16.46257813 108.36523438 17.640625 C108.69225342 18.23810547 109.01927246 18.83558594 109.35620117 19.45117188 C110.76309935 22.0215509 112.17510328 24.58911318 113.58685303 27.15682983 C114.31743972 28.48565705 115.04778509 29.81461697 115.77789307 31.14370728 C119.33007297 37.6079998 122.91288011 44.05502823 126.5 50.5 C133.69179078 63.43083792 140.84153662 76.38459296 147.98388672 89.34277344 C149.98967465 92.98160835 151.99660642 96.61981142 154.00390625 100.2578125 C154.33370483 100.85553467 154.66350342 101.45325684 155.0032959 102.0690918 C156.00217789 103.87940523 157.00108409 105.68970529 158 107.5 C161.67627472 114.16236328 165.35252122 120.8247406 169.02566528 127.48883057 C175.83153137 139.83646039 182.64752323 152.17814822 189.5 164.5 C194.66229808 173.78263954 199.80835624 183.07401553 204.9375 192.375 C205.43466019 193.27650787 205.43466019 193.27650787 205.94186401 194.19622803 C208.63208462 199.07484104 211.32125099 203.95403497 214.01037598 208.83325195 C216.36059236 213.09743912 218.71122414 217.36139693 221.0625 221.625 C221.39402069 222.22616638 221.72554138 222.82733276 222.06710815 223.44671631 C227.46744218 233.23781028 232.89030522 243.01623087 238.3293457 252.78588867 C241.70108593 258.84626447 245.05581109 264.91534304 248.390625 270.99609375 C249.12561518 272.33465511 249.86064091 273.67319695 250.59570312 275.01171875 C252.00398499 277.57631746 253.40830807 280.14303082 254.81054688 282.7109375 C255.44541016 283.86722656 256.08027344 285.02351563 256.734375 286.21484375 C257.57307129 287.74806274 257.57307129 287.74806274 258.42871094 289.31225586 C259.81878381 291.69002346 261.29351861 293.84246484 263 296 C263.53403442 294.99924438 263.53403442 294.99924438 264.07885742 293.97827148 C270.968424 281.08388517 277.93581753 268.25219529 285.17260742 255.54858398 C289.03825341 248.74610052 292.79252984 241.88983128 296.5 235 C301.26329047 226.14888042 306.15365665 217.38023314 311.125 208.64453125 C315.00436966 201.8090073 318.77540799 194.92093659 322.5 188 C326.74400123 180.11391118 331.0706437 172.28349685 335.5 164.5 C340.56285695 155.60162221 345.48129942 146.63341555 350.34033203 137.62231445 C354.69163072 129.55513022 359.11998156 121.53428227 363.58789062 113.53125 C366.43937145 108.41988189 369.28190465 103.30353561 372.125 98.1875 C372.76034668 97.04434326 373.39569336 95.90118652 374.05029297 94.72338867 C378.71637207 86.32449011 383.36200298 77.91443221 388 69.5 C394.38641965 57.91384286 400.79886102 46.34240281 407.23046875 34.78125 C409.54718043 30.61643005 411.85973986 26.44935993 414.16716003 22.27938843 C415.56511482 19.75312439 416.96427654 17.2275297 418.36349487 14.70196533 C419.03395378 13.49099255 419.70382174 12.27969239 420.37307739 11.0680542 C421.29667486 9.39608999 422.222499 7.72535637 423.1484375 6.0546875 C423.67614746 5.10062012 424.20385742 4.14655273 424.74755859 3.16357422 C426 1 426 1 427 0 C458.68 0 490.36 0 523 0 C523 162.03 523 324.06 523 491 C496.6 491 470.2 491 443 491 C442.505 307.355 442.505 307.355 442 120 C431.75904909 138.09574828 431.75904909 138.09574828 421.625 156.25 C420.35679502 158.53647175 419.08856512 160.82292968 417.8203125 163.109375 C417.18899414 164.24826172 416.55767578 165.38714844 415.90722656 166.56054688 C412.77506584 172.20902105 409.63728082 177.85436857 406.5 183.5 C405.24997235 185.74998464 403.99997237 187.99998465 402.75 190.25 C380.25 230.75 357.75 271.25 335.25 311.75 C334.32127075 313.4218335 334.32127075 313.4218335 333.3737793 315.12744141 C332.12812487 317.36945707 330.88219544 319.61131995 329.63598633 321.85302734 C326.77237162 327.00491181 323.91099098 332.15797943 321.06039429 337.31707764 C320.07483172 339.10045332 319.08833058 340.88330672 318.1015625 342.66601562 C316.88228202 344.86942964 315.66465418 347.07375955 314.44921875 349.27929688 C313.28713764 351.37764561 312.08276191 353.45303509 310.84082031 355.50512695 C309.34852444 358.33831203 308.51591292 360.52585011 307.66699219 363.54760742 C305.87968559 368.88603047 303.94861051 373.01031103 299 376 C287.52647313 378.78076348 275.24077566 377.67442496 263.54620361 377.16729736 C259.08944879 376.99244878 254.63108056 376.91555784 250.171875 376.83007812 C241.44343137 376.64847929 232.72294322 376.35894344 224 376 C217.30827258 364.33869855 210.65091961 352.6647322 204.1875 340.875 C202.81852866 338.38496513 201.44827331 335.89563738 200.078125 333.40625 C199.73756577 332.78712738 199.39700653 332.16800476 199.04612732 331.53012085 C195.52742793 325.1353533 191.98450012 318.7541082 188.4375 312.375 C187.82285889 311.26946777 187.20821777 310.16393555 186.57495117 309.02490234 C185.33638148 306.79746017 184.09769361 304.5700837 182.85888672 302.34277344 C179.7374165 296.72953858 176.61889751 291.1146646 173.5 285.5 C172.88189453 284.38753906 172.26378906 283.27507812 171.62695312 282.12890625 C168.48825447 276.47990324 165.35058736 270.83033144 162.21484375 265.1796875 C156.16255271 254.27555983 150.09895694 243.37810578 144 232.5 C137.26472928 220.48696432 130.57383214 208.4495583 123.89111328 196.40722656 C120.76254947 190.7704803 117.63110473 185.13533509 114.5 179.5 C113.88423096 178.39148682 113.26846191 177.28297363 112.6340332 176.14086914 C109.7857868 171.01343014 106.93708388 165.88624736 104.08618164 160.76028442 C103.1074397 159.00042642 102.12888871 157.24046235 101.15039062 155.48046875 C99.94633352 153.31489842 98.74194716 151.14951109 97.53710938 148.984375 C91.99102604 139.00776338 86.5011074 129.00201346 81 119 C80.67 241.76 80.34 364.52 80 491 C53.6 491 27.2 491 0 491 C0 328.97 0 166.94 0 0 Z " fill="#18272F" transform="translate(939,16)"/>
<path d="M0 0 C6.49500271 5.92649147 12.50796859 12.13496073 18 19 C18.33 4.48 18.66 -10.04 19 -25 C43.75 -25 68.5 -25 94 -25 C94 95.78 94 216.56 94 341 C69.25 341 44.5 341 19 341 C18.67 325.16 18.34 309.32 18 293 C14.37 297.29 10.74 301.58 7 306 C-19.65286313 334.36138 -56.17892359 348.97182466 -94.83984375 350.21875 C-137.35248158 351.09615257 -178.05228263 338.48046341 -209.1328125 308.76953125 C-210.07898437 307.85558594 -211.02515625 306.94164062 -212 306 C-212.92554687 305.13761719 -213.85109375 304.27523438 -214.8046875 303.38671875 C-251.12765608 268.65866806 -266.85546907 215.10267937 -268.28515625 166.15234375 C-269.41133174 109.39995034 -253.97173352 55.40666693 -215.109375 13.16796875 C-211.91360295 9.88342526 -208.53963828 6.90636966 -205 4 C-204.26394531 3.37609375 -203.52789063 2.7521875 -202.76953125 2.109375 C-146.43473503 -44.57590474 -56.43624388 -48.24524789 0 0 Z M-150 59 C-150.63035156 59.47824219 -151.26070312 59.95648438 -151.91015625 60.44921875 C-173.50957245 77.62050862 -184.86978422 108.29109365 -188 135 C-192.03544547 171.90790492 -187.64083154 212.26417273 -164.5625 242.625 C-163.38110809 244.08828586 -162.19378723 245.54680889 -161 247 C-160.23623047 247.98419922 -160.23623047 247.98419922 -159.45703125 248.98828125 C-144.85905769 266.97442645 -121.6624995 276.61793533 -99.125 279.3125 C-70.44804972 282.25918157 -40.04029321 276.02734238 -17 258 C-5.21629664 248.22750299 4.55179411 237.44310331 12 224 C12.41481471 223.29584269 12.82962942 222.59168537 13.25701427 221.86618996 C16.84764044 215.37618267 17.73489561 210.189244 17.69458008 202.83740234 C17.70816055 201.76924286 17.72174103 200.70108337 17.73573303 199.60055542 C17.77280304 196.09533104 17.7730729 192.59133988 17.76953125 189.0859375 C17.78053429 186.62748751 17.79257039 184.16904195 17.80558777 181.71060181 C17.82645319 176.56458389 17.82779763 171.41899312 17.81665039 166.27294922 C17.80498715 159.71617897 17.85240381 153.16135545 17.91611195 146.60494041 C17.95693815 141.52753193 17.96045232 136.45058329 17.95371056 131.37303543 C17.95590047 128.95796867 17.97060459 126.54287636 17.99866676 124.12797165 C18.14970161 109.44449363 17.21895832 98.40087711 9 86 C8.30530106 84.94501312 7.61060211 83.89002625 6.89485168 82.80307007 C-8.65138395 60.08149938 -30.80201133 44.20167343 -57.87988281 38.390625 C-90.56272485 32.36891297 -123.75519806 37.97760384 -150 59 Z " fill="#18272F" transform="translate(2466,166)"/>
<path d="M0 0 C1.63520901 1.53083396 3.25973906 3.07313235 4.875 4.625 C5.83019531 5.51703125 6.78539062 6.4090625 7.76953125 7.328125 C20.06814347 19.01706921 29.10478159 32.61221521 36.875 47.625 C37.2162793 48.27629883 37.55755859 48.92759766 37.90917969 49.59863281 C59.61594548 91.53735065 61.875 137.41573586 61.875 183.625 C-26.895 183.625 -115.665 183.625 -207.125 183.625 C-200.79816387 206.82339916 -194.77009069 228.42821514 -177.77734375 245.76953125 C-176.125 247.625 -176.125 247.625 -176.125 249.625 C-175.54234375 249.88152344 -174.9596875 250.13804687 -174.359375 250.40234375 C-171.92360725 251.73520268 -170.34537745 253.23682632 -168.375 255.1875 C-143.90376225 277.28796102 -110.31919158 278.76930573 -79.125 277.625 C-47.57435092 275.67312183 -19.81509898 261.88521933 3.875 241.625 C5.10285225 240.60258607 6.33176113 239.5814373 7.5625 238.5625 C8.325625 237.923125 9.08875 237.28375 9.875 236.625 C14.3058742 240.09207821 17.69546582 243.63729717 21.0625 248.125 C24.7850862 252.97714099 28.5859607 257.72841348 32.5625 262.375 C39.58373854 270.59751603 46.26347758 279.07134286 52.875 287.625 C45.51660699 306.30068753 10.21719389 321.36516097 -6.97998047 328.87109375 C-58.59365344 350.46518516 -123.63572802 355.14538823 -176.125 333.625 C-201.62851556 322.72583057 -225.52335234 307.46478842 -243.125 285.625 C-243.89457031 284.68140625 -244.66414063 283.7378125 -245.45703125 282.765625 C-259.82059611 264.83140913 -269.91809709 244.36793636 -277.125 222.625 C-277.36347656 221.90650879 -277.60195312 221.18801758 -277.84765625 220.44775391 C-294.61246868 168.56065945 -290.09802901 105.21371259 -265.26953125 56.59375 C-248.17689333 24.50996225 -223.61286313 -1.70574898 -191.125 -18.375 C-190.51333984 -18.69307617 -189.90167969 -19.01115234 -189.27148438 -19.33886719 C-130.74362031 -49.42005189 -49.98186807 -44.14398588 0 0 Z M-151.125 39.625 C-152.011875 40.03105469 -152.89875 40.43710938 -153.8125 40.85546875 C-177.05926669 52.37748538 -192.9988764 75.58692895 -201.125 99.625 C-202.10231113 102.5927615 -203.0358854 105.57089813 -203.9375 108.5625 C-204.2483252 109.59093018 -204.2483252 109.59093018 -204.56542969 110.64013672 C-204.85208496 111.6361792 -204.85208496 111.6361792 -205.14453125 112.65234375 C-205.39360229 113.51460571 -205.39360229 113.51460571 -205.64770508 114.39428711 C-206.36862748 117.76363133 -206.69762501 121.20600011 -207.125 124.625 C-144.095 124.625 -81.065 124.625 -16.125 124.625 C-16.125 118.26028379 -16.33715249 113.15875378 -17.75 107.125 C-17.92821289 106.35381836 -18.10642578 105.58263672 -18.29003906 104.78808594 C-24.41744836 79.33497285 -36.6350114 57.05310115 -59.125 42.625 C-86.75951605 26.49519984 -122.49849518 25.84036202 -151.125 39.625 Z " fill="#18272F" transform="translate(1818.125,169.375)"/>
<path d="M0 0 C25.41 0 50.82 0 77 0 C77 35.31 77 70.62 77 107 C113.63 107 150.26 107 188 107 C188 128.78 188 150.56 188 173 C151.37 173 114.74 173 77 173 C77.11984681 204.42387417 77.11984681 204.42387417 77.2578125 235.84765625 C77.31813082 248.67039363 77.37649421 261.49311786 77.421875 274.31591797 C77.45494135 283.65654765 77.4948521 292.99711949 77.54279006 302.33768511 C77.5679103 307.27787018 77.58973331 312.2180176 77.60334396 317.1582489 C77.61629698 321.82037301 77.63848992 326.48236702 77.66738319 331.14441872 C77.67635666 332.84376926 77.68212484 334.5431407 77.68421364 336.24251366 C77.71539925 357.78501515 79.12264712 380.71685124 94 397.6875 C109.32401695 411.87143691 130.94692736 411.84017104 150.50976562 411.18603516 C159.42355214 410.71091587 168.27724317 409.59633852 177.11767578 408.38891602 C180.74170094 407.89992126 184.37137205 407.45357849 188 407 C188 428.45 188 449.9 188 472 C181.9338632 474.2748013 176.79031841 475.8585542 170.5625 477.0625 C169.78712891 477.22298828 169.01175781 477.38347656 168.21289062 477.54882812 C153.75282648 480.40868195 139.39497376 481.38193859 124.6875 481.3125 C123.47651138 481.30976578 123.47651138 481.30976578 122.24105835 481.30697632 C109.94853108 481.26036483 98.02234015 480.77543685 86 478 C85.24315918 477.83371094 84.48631836 477.66742188 83.70654297 477.49609375 C56.57966863 471.37085346 33.79918432 456.14889557 18.8046875 432.6171875 C11.79725141 420.92036453 7.48475962 408.7151324 4.25 395.5 C4.05124268 394.6948999 3.85248535 393.8897998 3.64770508 393.06030273 C0.27992721 378.47622225 -0.28887273 364.07920151 -0.22705078 349.19140625 C-0.22648521 347.25803636 -0.22680607 345.32466603 -0.22793579 343.39129639 C-0.2285046 338.19402392 -0.21682752 332.99684565 -0.20278788 327.79959488 C-0.19020105 322.34906759 -0.18910379 316.89853763 -0.18673706 311.44799805 C-0.1805455 301.149547 -0.16416643 290.85113893 -0.14403808 280.55270672 C-0.12160636 268.81858673 -0.11066744 257.08446458 -0.10064721 245.35032845 C-0.0797979 221.23352306 -0.04315103 197.1167765 0 173 C-24.09 173 -48.18 173 -73 173 C-73 151.22 -73 129.44 -73 107 C-48.91 107 -24.82 107 0 107 C0 71.69 0 36.38 0 0 Z " fill="#18272F" transform="translate(1975,34)"/>
</svg>
