<?xml version="1.0" encoding="UTF-8"?>
<svg version="1.1" xmlns="http://www.w3.org/2000/svg" width="1200" height="884">
<path d="M0 0 C176.22 0 352.44 0 534 0 C534 185.79 534 371.58 534 563 C357.78 563 181.56 563 0 563 C0 541.22 0 519.44 0 497 C-6.27 496.34 -12.54 495.68 -19 495 C-23.22215116 494.33570161 -27.37792693 493.64501306 -31.5625 492.8125 C-32.65054932 492.59746826 -33.73859863 492.38243652 -34.85961914 492.16088867 C-87.74629057 481.38901472 -138.27245224 458.48849505 -180 424 C-180.53189941 423.56139648 -181.06379883 423.12279297 -181.61181641 422.67089844 C-191.82571282 414.21985145 -201.70937168 405.46374562 -211 396 C-213.65395824 393.33274981 -216.32225722 390.68203093 -219.015625 388.0546875 C-224.96960353 382.21967872 -230.59468606 376.32776498 -235.77734375 369.78125 C-237.73981942 367.32556867 -239.76577196 364.94281541 -241.82788086 362.57080078 C-253.34170685 349.26859995 -263.52108232 334.80661349 -273 320 C-273.72388916 318.87682373 -273.72388916 318.87682373 -274.46240234 317.73095703 C-287.93868912 296.72867587 -299.73848549 274.74445266 -310 252 C-310.37334473 251.18015625 -310.74668945 250.3603125 -311.13134766 249.515625 C-312.1920833 247.16488134 -313.22650762 244.80466204 -314.25 242.4375 C-314.56251709 241.74068115 -314.87503418 241.0438623 -315.19702148 240.32592773 C-317.17285577 235.60761424 -317.17285577 235.60761424 -316.35546875 232.734375 C-311.63855788 226.69890403 -305.68692157 222.02616281 -299.74609375 217.24609375 C-297.3256426 215.26635063 -294.99880859 213.22971118 -292.6875 211.125 C-287.34086668 206.3262549 -281.67395078 201.95330527 -275.99804688 197.55664062 C-273.91055556 195.93031552 -271.8372946 194.28704725 -269.765625 192.640625 C-259.94361765 184.86532279 -249.87644818 177.60325169 -239.45947266 170.64746094 C-236.9678506 168.97846494 -234.4890506 167.29168226 -232.01171875 165.6015625 C-213.72100544 153.18362848 -194.77882213 141.7294364 -175.3125 131.24658203 C-173.71066052 130.38309044 -172.11189502 129.51388122 -170.515625 128.64013672 C-144.75495998 114.56914473 -117.84215819 103.2493564 -90 94 C-88.9368457 93.64212402 -87.87369141 93.28424805 -86.77832031 92.91552734 C-74.11657474 88.69040444 -61.3281692 85.18777506 -48.3125 82.25 C-47.14686523 81.98034424 -45.98123047 81.71068848 -44.78027344 81.43286133 C-30.26006722 78.29583941 -15.86195721 76.9176719 -1 75 C-0.67 50.25 -0.34 25.5 0 0 Z M1 76 C1 89.2 1 102.4 1 116 C7.47625 116.103125 13.9525 116.20625 20.625 116.3125 C35.57050902 116.63813511 50.3124937 116.96610502 65 120 C65.98097656 120.20254395 66.96195312 120.40508789 67.97265625 120.61376953 C104.40315391 128.37274324 138.26701375 142.92082381 169 164 C169.60360352 164.41072754 170.20720703 164.82145508 170.82910156 165.24462891 C184.34756426 174.49155532 196.9519935 184.91830119 209 196 C210.66624255 197.47964441 212.33291702 198.95880256 214 200.4375 C221.83609464 207.49859627 229.20020369 214.93717458 236 223 C236.81339844 223.92425781 237.62679687 224.84851563 238.46484375 225.80078125 C239.71974609 227.26064453 239.71974609 227.26064453 241 228.75 C242.175625 230.10351562 242.175625 230.10351562 243.375 231.484375 C245 234 245 234 245.01953125 235.9609375 C239.6875103 246.6249794 229.83196903 256.07863222 222 265 C220.91138672 266.24136719 220.91138672 266.24136719 219.80078125 267.5078125 C217.55791221 270.02837009 215.28581144 272.51826187 213 275 C212.42233887 275.6280957 211.84467773 276.25619141 211.24951172 276.90332031 C202.83524323 286.02671583 194.29470937 294.77364803 185 303 C184.1853125 303.7528125 183.370625 304.505625 182.53125 305.28125 C176.20842591 311.1113865 169.53873911 316.40828117 162.73193359 321.65332031 C161.13641341 322.89393059 159.56129771 324.16066514 157.98828125 325.4296875 C122.8905953 353.4160776 76.46027446 376.49756709 30.38134766 371.72900391 C20.52471357 370.52440188 10.76067588 368.81080412 1 367 C0.97535151 372.39346988 0.95716469 377.78690725 0.94506836 383.18041992 C0.94002769 385.01668875 0.93319523 386.85295354 0.92456055 388.68920898 C0.91248328 391.32276401 0.90676919 393.95626616 0.90234375 396.58984375 C0.89718246 397.41588608 0.89202118 398.24192841 0.88670349 399.09300232 C0.88650795 401.06236368 0.93795848 403.03161614 1 405 C7.45872721 411.45872721 32.26611359 409.24673179 41.0859375 409.2512207 C80.05313998 408.68510202 117.28813777 397.02085057 152 380 C153.74175223 379.16705795 155.48392913 378.33500325 157.2265625 377.50390625 C188.87012538 362.23885384 218.2799971 341.77591029 245.29003906 319.40576172 C247.6248891 317.48627763 249.99938939 315.61866567 252.375 313.75 C256.61268979 310.37264656 260.63648618 306.79426648 264.640625 303.14453125 C266.69627396 301.27606887 268.77489901 299.44306264 270.875 297.625 C281.82822143 288.04542617 292.20175958 277.95671714 302.47436523 267.65600586 C304.82227056 265.302707 307.17551968 262.9548461 309.52929688 260.60742188 C311.04719597 259.08886242 312.56478506 257.56999304 314.08203125 256.05078125 C314.77383987 255.36099686 315.4656485 254.67121246 316.17842102 253.96052551 C322.71851376 247.38926647 328.74357093 240.64571501 334 233 C323.60396949 220.49611291 312.72666606 208.64826506 301.25 197.125 C300.45787109 196.32819824 299.66574219 195.53139648 298.84960938 194.71044922 C294.06057241 189.93443683 289.13792864 185.39639983 284 181 C282.9169986 180.05058468 281.83491955 179.10011587 280.75390625 178.1484375 C271.81038755 170.34720704 262.51792969 163.08507668 253 156 C252.28859863 155.46761719 251.57719727 154.93523437 250.84423828 154.38671875 C228.88902138 138.01367426 205.59558074 123.89806193 180.95800781 111.95458984 C179.04513724 111.02200581 177.14361299 110.0689379 175.2421875 109.11328125 C137.82409825 90.59560329 96.44662395 79.99888626 55 76 C53.91452881 75.89413574 53.91452881 75.89413574 52.80712891 75.78613281 C44.17358983 74.99190605 35.53860136 74.90921962 26.875 74.875 C25.42673828 74.86786987 25.42673828 74.86786987 23.94921875 74.8605957 C16.21989107 74.87819792 8.76129513 75.44562178 1 76 Z M-15.78515625 118.6640625 C-17.30254395 118.88763428 -17.30254395 118.88763428 -18.85058594 119.11572266 C-19.91051758 119.28378418 -20.97044922 119.4518457 -22.0625 119.625 C-23.1959082 119.80466309 -24.32931641 119.98432617 -25.49707031 120.16943359 C-99.4133012 132.35218914 -177.7351758 172.42588462 -223 234 C-223.56992676 234.61738037 -224.13985352 235.23476074 -224.72705078 235.87084961 C-226.68107925 238.22343574 -227.96137466 240.11543827 -229 243 C-228.47727738 247.64537911 -226.66557349 251.57855798 -224.75 255.8125 C-224.2351001 257.02719971 -223.7202002 258.24189941 -223.18969727 259.4934082 C-221.53372544 263.36397825 -219.78254077 267.18631018 -218 271 C-217.70881287 271.62370483 -217.41762573 272.24740967 -217.11761475 272.89001465 C-200.86657063 307.52079418 -180.41822282 339.37249183 -155 368 C-154.51756836 368.5455957 -154.03513672 369.09119141 -153.53808594 369.65332031 C-148.68511584 375.11984682 -143.80613302 380.42621689 -138.18359375 385.12109375 C-135.97298941 387.02324167 -133.87982407 389.02563418 -131.77856445 391.046875 C-102.65851409 418.78621406 -64.78024166 437.64915479 -26.0625 447.6875 C-25.30090576 447.89004395 -24.53931152 448.09258789 -23.75463867 448.30126953 C-15.80629754 450.28607866 -8.32029601 450.959963 0 452 C0 436.82 0 421.64 0 406 C-4.0425 405.01 -8.085 404.02 -12.25 403 C-67.90322133 388.8051438 -110.45876959 352.40318504 -140 304 C-140.41991211 303.31276855 -140.83982422 302.62553711 -141.27246094 301.91748047 C-164.09271603 264.01733004 -164.09271603 264.01733004 -163.98046875 248.2578125 C-159.6581188 238.30435324 -146.47988858 230.34933773 -138 224 C-137.32582031 223.48679199 -136.65164062 222.97358398 -135.95703125 222.44482422 C-97.86940025 193.51828931 -51.95032086 174.51977223 -4.48828125 168.5078125 C-1.18218746 168.38147631 -1.18218746 168.38147631 0 167 C0.09319449 165.4651703 0.117458 163.92607918 0.11352539 162.38842773 C0.11344986 161.40748642 0.11337433 160.4265451 0.11329651 159.4158783 C0.10813522 158.3492244 0.10297394 157.2825705 0.09765625 156.18359375 C0.0962413 155.0974025 0.09482635 154.01121124 0.09336853 152.8921051 C0.08775048 149.40720925 0.07519492 145.92237658 0.0625 142.4375 C0.05748733 140.08138113 0.05292402 137.72526126 0.04882812 135.36914062 C0.03777519 129.57940536 0.02101951 123.78970719 0 118 C-5.31216969 117.93749475 -10.51658937 117.88743851 -15.78515625 118.6640625 Z M1 168 C1 182.19 1 196.38 1 211 C3.97 211.66 6.94 212.32 10 213 C24.94487601 216.52052487 38.75862941 220.30973895 51 230 C51.78761719 230.61101562 52.57523437 231.22203125 53.38671875 231.8515625 C67.09062659 243.28251944 76.34103868 259.24388907 85.41259766 274.36035156 C87.52822122 277.87836479 89.67408035 281.37750313 91.81982422 284.87719727 C93.88581265 288.24786043 95.94298396 291.62385544 98 295 C102.26954928 292.6421892 105.84975453 289.70054422 109.5 286.5 C110.7483621 285.41758133 111.99706766 284.33555866 113.24609375 283.25390625 C113.87370605 282.70879395 114.50131836 282.16368164 115.14794922 281.60205078 C117.93426368 279.19184837 120.74668299 276.81310379 123.5625 274.4375 C124.63413955 273.53258165 125.70575412 272.62763371 126.77734375 271.72265625 C127.3069873 271.2755127 127.83663086 270.82836914 128.38232422 270.36767578 C130.02908979 268.97540583 131.67310067 267.57994527 133.31640625 266.18359375 C138.30026248 261.95146367 143.29559272 257.74262602 148.375 253.625 C155.3929147 247.91709605 162.1867016 241.94899334 169 236 C163.28889075 224.17312963 151.13261137 214.91088543 141 207 C140.19828369 206.36771484 140.19828369 206.36771484 139.38037109 205.72265625 C107.78341652 180.98103861 69.8320251 166.48309191 29.57519531 166.79418945 C27.10731797 166.81263214 24.63981469 166.81469699 22.171875 166.81445312 C20.57551763 166.81936416 18.97916276 166.82519067 17.3828125 166.83203125 C16.65869171 166.83314407 15.93457092 166.8342569 15.18850708 166.83540344 C14.49353119 166.84178329 13.7985553 166.84816315 13.08251953 166.85473633 C12.18655563 166.86045403 12.18655563 166.86045403 11.27249146 166.86628723 C7.83348522 167.06863741 4.41835184 167.57270602 1 168 Z M-80 241 C-80.89589844 241.78761719 -81.79179687 242.57523438 -82.71484375 243.38671875 C-84.43159622 244.91188064 -86.13579931 246.4513429 -87.82421875 248.0078125 C-89.10815583 249.18341019 -90.41542863 250.33564433 -91.76953125 251.4296875 C-93.38069306 252.70021624 -93.38069306 252.70021624 -95 255 C-94.72772192 261.19833043 -92.41731855 266.37726874 -89.9375 272 C-89.53120361 272.92917236 -89.12490723 273.85834473 -88.70629883 274.81567383 C-79.92740369 294.63275117 -68.73647149 313.01994441 -54 329 C-53.53658203 329.50724609 -53.07316406 330.01449219 -52.59570312 330.53710938 C-42.69867055 341.24871253 -31.38724314 349.69608693 -18.75 356.9375 C-18.13737305 357.29094482 -17.52474609 357.64438965 -16.89355469 358.00854492 C-11.34951242 361.06714994 -6.14615021 362.76503629 0 365 C0 314.51 0 264.02 0 212 C-31.33323429 212 -56.67490095 220.15707111 -80 241 Z M372 300 C365.97809877 304.86667936 360.04071428 309.80795274 354.1875 314.875 C349.02816185 319.32983039 343.7653249 323.61275866 338.38037109 327.79125977 C334.63532784 330.70067924 330.94883815 333.66988183 327.2890625 336.68579102 C318.55384391 343.87486728 309.54318312 350.62914069 300.38476562 357.26806641 C298.04706041 358.96582242 295.71806526 360.67492718 293.390625 362.38671875 C239.03181501 402.22835652 177.33163885 433.54938826 111 447 C110.04883301 447.19432617 109.09766602 447.38865234 108.11767578 447.58886719 C83.83477572 452.43952144 59.65133952 454.27569567 34.9375 454.25 C33.51880112 454.24897278 33.51880112 454.24897278 32.07144165 454.2479248 C29.32745039 454.24136059 26.58375349 454.22492531 23.83984375 454.203125 C23.03970856 454.19873413 22.23957336 454.19434326 21.41519165 454.18981934 C14.54567355 454.10689356 7.89743885 453.53057222 1 453 C1 467.19 1 481.38 1 496 C85.0686956 504.40686956 172.07576859 484.37317709 468 358 C466.90624587 354.71873761 466.50147703 354.3696726 463.7734375 352.5390625 C463.08386963 352.07459717 462.39430176 351.61013184 461.68383789 351.1315918 C460.92192139 350.6344165 460.16000488 350.13724121 459.375 349.625 C458.57376709 349.09753174 457.77253418 348.57006348 456.94702148 348.02661133 C446.91666537 341.52103076 436.46517155 335.76801316 426 330 C421.47781212 327.50244306 416.95713411 325.00217518 412.4375 322.5 C410.74935181 321.56704102 410.74935181 321.56704102 409.02709961 320.61523438 C400.55193181 315.9124491 392.18567802 311.04504027 383.88842773 306.03515625 C383.05126221 305.53242188 382.21409668 305.0296875 381.3515625 304.51171875 C380.62791504 304.07303467 379.90426758 303.63435059 379.15869141 303.18237305 C376.83428394 301.90923288 374.47678919 300.93714147 372 300 Z " fill="#76B900" transform="translate(390,0)"/>
<path d="M0 0 C18.129375 -0.04125 36.25875 -0.0825 54.9375 -0.125 C60.62991943 -0.14320801 66.32233887 -0.16141602 72.18725586 -0.18017578 C79.21984863 -0.18920898 79.21984863 -0.18920898 82.52784729 -0.19088745 C84.80377488 -0.19392824 87.07969955 -0.20089809 89.35560608 -0.21115112 C119.87583175 -0.34159121 153.394161 1.58837991 177.26171875 23.234375 C193.96135366 40.19670079 201.64391634 60.84543721 205 84 C205.14139404 84.97187256 205.14139404 84.97187256 205.28564453 85.96337891 C209.41301063 117.88216897 206.18302274 156.89217209 186.26171875 183.3046875 C175.93631775 195.66096447 162.3536369 203.48060732 147 207.75 C146.3083374 207.94883789 145.6166748 208.14767578 144.90405273 208.35253906 C126.93860458 212.96708087 107.83527163 212.27497062 89.453125 212.1953125 C87.15022885 212.19236294 84.84733136 212.19032814 82.54443359 212.18920898 C74.11293496 212.17882744 65.68146523 212.15090558 57.25 212.125 C38.3575 212.08375 19.465 212.0425 0 212 C0 142.04 0 72.08 0 0 Z M61 47 C61 86.27 61 125.54 61 166 C100.09977095 167.62360558 100.09977095 167.62360558 133 150 C145.47046144 135.37533217 148.08010437 116.24493393 146.75390625 97.59765625 C145.39222919 83.38515195 140.65808617 69.51623717 129.9609375 59.58984375 C109.95678005 43.37133363 85.86589457 47 61 47 Z " fill="#000000" transform="translate(565,663)"/>
<path d="M0 0 C18.995625 -0.04125 37.99125 -0.0825 57.5625 -0.125 C66.4890564 -0.15231201 66.4890564 -0.15231201 75.59594727 -0.18017578 C82.9822998 -0.18920898 82.9822998 -0.18920898 86.46324158 -0.19088745 C88.84390516 -0.19391622 91.22456609 -0.2008596 93.60520935 -0.21115112 C127.95042571 -0.3519282 164.6883496 0.02462825 191.203125 25.08203125 C213.0641198 48.23632918 213.48887732 80.58875301 213.30418181 110.48058987 C213.28512429 114.09863445 213.28364214 117.7166908 213.28010559 121.33477783 C213.27086886 128.15175651 213.24637165 134.96858676 213.21605712 141.78550076 C213.17589753 151.02147154 213.15999039 160.25748437 213.14255047 169.49352074 C213.11454191 183.99579116 213.05471783 198.49774872 213 213 C193.53 213 174.06 213 154 213 C153.95101562 205.97589844 153.90203125 198.95179688 153.8515625 191.71484375 C153.81610198 187.21678402 153.78009994 182.71874123 153.7421875 178.22070312 C153.68229976 171.10948349 153.62422218 163.99828705 153.578125 156.88696289 C153.54075841 151.14207766 153.49427349 145.39732692 153.44193649 139.65255928 C153.42366102 137.48059047 153.40845871 135.30859314 153.39665604 133.13657951 C153.33337752 121.87512347 153.03687239 110.69211626 152.08349609 99.46704102 C152.00451395 98.52926536 151.92553181 97.5914897 151.84415627 96.62529659 C150.60819308 83.35882998 147.3932705 70.12164005 136.875 61.125 C116.69179082 46.66945829 79.95679093 52.36455367 61 52 C61 105.13 61 158.26 61 213 C40.87 213 20.74 213 0 213 C0 142.71 0 72.42 0 0 Z " fill="#000000" transform="translate(0,662)"/>
<path d="M0 0 C26.73 0 53.46 0 81 0 C85.4992307 8.99846141 85.4992307 8.99846141 87.12451172 13.17602539 C87.67964195 14.59410492 87.67964195 14.59410492 88.24598694 16.04083252 C88.63660812 17.04958435 89.02722931 18.05833618 89.4296875 19.09765625 C89.8516893 20.17770935 90.2736911 21.25776245 90.70848083 22.37054443 C91.62094912 24.70636541 92.53183905 27.04280344 93.4413147 29.37979126 C95.92184784 35.751539 98.4162015 42.11787126 100.91015625 48.484375 C101.16626112 49.13847162 101.42236599 49.79256824 101.68623161 50.46648598 C106.83207023 63.60712253 112.05887227 76.71458774 117.3125 89.8125 C119.10731401 94.29144914 120.90138625 98.77069523 122.6953125 103.25 C123.16993423 104.43507141 123.64455597 105.62014282 124.13356018 106.84112549 C130.53244762 122.82094105 136.91995737 138.80529835 143.29220486 154.79575634 C145.16867541 159.504359 147.04662471 164.21235841 148.92837524 168.91885376 C150.70944707 173.37366608 152.48641455 177.83009424 154.26039505 182.28773499 C154.91909657 183.94089409 155.57924097 185.59347912 156.24094772 187.24543762 C157.15770215 189.53486169 158.06907108 191.82636272 158.97924805 194.1184082 C159.24252553 194.77228925 159.50580301 195.42617029 159.7770586 196.09986591 C161.85621013 201.36132722 163.35577065 206.51923549 165 212 C143.55 212 122.1 212 100 212 C98.02 206.26625 96.04 200.5325 94 194.625 C93.37351562 192.81596191 92.74703125 191.00692383 92.1015625 189.14306641 C91.60913146 187.71264892 91.11692824 186.28215298 90.625 184.8515625 C90.36589844 184.10608154 90.10679687 183.36060059 89.83984375 182.5925293 C88 177.2281436 88 177.2281436 88 175 C39.49 175.495 39.49 175.495 -10 176 C-16.435 193.82 -16.435 193.82 -23 212 C-42.8 212 -62.6 212 -83 212 C-79.62492888 200.74976293 -79.62492888 200.74976293 -77.97314453 196.56518555 C-77.59988541 195.61380203 -77.22662628 194.66241852 -76.84205627 193.6822052 C-76.44300583 192.67719467 -76.04395538 191.67218414 -75.6328125 190.63671875 C-74.99236244 189.00962227 -74.99236244 189.00962227 -74.338974 187.34965515 C-72.93823968 183.79404179 -71.5316906 180.24076064 -70.125 176.6875 C-69.13783118 174.18665998 -68.15185321 171.68535086 -67.16577148 169.18408203 C-64.36490788 162.082484 -61.55665171 154.98382223 -58.74655914 147.88587189 C-57.54797108 144.85813651 -56.34996946 141.83016909 -55.15185547 138.80224609 C-50.71924899 127.6019636 -46.28131152 116.40380244 -41.83984375 105.20703125 C-37.59127114 94.49624013 -33.35407912 83.78100131 -29.125 73.0625 C-28.52872904 71.55167571 -27.93245627 70.04085214 -27.33618164 68.5300293 C-24.55806334 61.4898143 -21.78246996 54.44861145 -19.01022339 47.40608215 C-17.66455149 43.9881304 -16.31789287 40.57056781 -14.97113037 37.15304565 C-14.33965369 35.54982673 -13.70864652 33.94642277 -13.07818604 32.34280396 C-12.19916394 30.10696514 -11.31847289 27.8717895 -10.4375 25.63671875 C-10.07106888 24.70274765 -10.07106888 24.70274765 -9.69723511 23.74990845 C-6.55708466 15.794183 -3.25754283 7.91117544 0 0 Z M39 41 C30.88708499 62.2310206 22.7978507 83.4706202 14.8125 104.75 C14.50343719 105.57250244 14.19437439 106.39500488 13.87594604 107.24243164 C12.98501988 109.61426541 12.09574377 111.98671102 11.20703125 114.359375 C10.82972366 115.36354462 10.82972366 115.36354462 10.4447937 116.38800049 C7.88590954 123.2330234 5.45885224 130.11521372 3 137 C26.76 137 50.52 137 75 137 C69.47205885 121.03039224 63.91890182 105.1068759 58.07006836 89.25708008 C56.9312199 86.17047915 55.79638699 83.08242384 54.66210938 79.99414062 C49.86792703 66.9601387 44.97616007 53.96559246 40 41 C39.67 41 39.34 41 39 41 Z " fill="#000000" transform="translate(965,663)"/>
<path d="M0 0 C21.78 0 43.56 0 66 0 C73.78868147 26.93624821 81.55423245 53.8775607 89.2109375 80.8515625 C89.54733498 82.03640984 89.88373245 83.22125717 90.23032379 84.44200897 C93.32395481 95.33922913 96.41482188 106.23723235 99.50390625 117.13574219 C101.22478695 123.20670621 102.94757368 129.27712666 104.67155838 135.34720993 C105.31902802 137.62844922 105.9657427 139.90990293 106.61167526 142.19157791 C107.49893156 145.32565761 108.38858654 148.4590468 109.27880859 151.59228516 C109.54152054 152.52263077 109.80423248 153.45297638 110.0749054 154.41151428 C110.31544144 155.25625809 110.55597748 156.10100189 110.80380249 156.97134399 C111.01200308 157.70576532 111.22020367 158.44018665 111.43471336 159.19686317 C111.97063738 161.07391679 111.97063738 161.07391679 113 163 C122.92661322 129.99447793 132.80711589 96.97553442 142.625 63.9375 C142.85638924 63.15890877 143.08777847 62.38031754 143.3261795 61.57813263 C144.67997212 57.02271098 146.03343123 52.4671904 147.38654709 47.91156769 C147.81861393 46.45699426 148.2507445 45.00243975 148.68294144 43.54790497 C150.92629439 35.99792072 153.16479103 28.44657027 155.38964844 20.89111328 C155.76149261 19.63013321 156.13333679 18.36915314 156.51644897 17.06996155 C157.21127601 14.71255587 157.90457977 12.35470049 158.59609985 9.99632263 C158.90002655 8.9657222 159.20395325 7.93512177 159.51708984 6.87329102 C159.91291763 5.52582542 159.91291763 5.52582542 160.31674194 4.15113831 C161 2 161 2 162 0 C182.46 0 202.92 0 224 0 C220.62551451 13.49794196 220.62551451 13.49794196 218.6184082 19.54541016 C218.29000364 20.54116043 218.29000364 20.54116043 217.95496464 21.55702686 C217.24089781 23.71905101 216.52083389 25.87902539 215.80078125 28.0390625 C215.28827087 29.58775163 214.77620702 31.13658859 214.26455688 32.68556213 C213.18073398 35.96457911 212.09452273 39.24279014 211.00631714 42.52035522 C208.13662986 51.16494326 205.28357735 59.81503047 202.4296875 68.46484375 C202.14649847 69.32272554 201.86330944 70.18060734 201.57153893 71.06448555 C196.94579289 85.08019343 192.40226795 99.11958745 187.9375 113.1875 C181.37435803 133.84239699 174.65137949 154.4438436 167.89174271 175.03509903 C167.06526862 177.55406167 166.23997551 180.0734084 165.41500854 182.59286499 C164.11833378 186.55226204 162.81850247 190.51060853 161.51610947 194.4681282 C161.0309298 195.94385781 160.54675168 197.4199171 160.06360245 198.89631271 C159.39950228 200.92474699 158.73164445 202.95190424 158.06274414 204.97875977 C157.68686661 206.12256607 157.31098907 207.26637238 156.92372131 208.44483948 C156 211 156 211 155 212 C152.29161914 212.09514592 149.60881487 212.12554932 146.90014648 212.11352539 C146.05143982 212.11367142 145.20273315 212.11381744 144.32830811 212.1139679 C141.50921109 212.11326848 138.69017929 212.10547478 135.87109375 212.09765625 C133.92196183 212.09579217 131.97282945 212.09436822 130.0236969 212.09336853 C124.88293168 212.08954255 119.74219453 212.07971159 114.60144043 212.06866455 C109.35994852 212.05845215 104.1184521 212.05387128 98.87695312 212.04882812 C88.58462306 212.03808939 78.29231386 212.02101201 68 212 C58.99713862 184.6318924 49.99992217 157.26274641 41.25 129.8125 C33.42526134 105.26517265 25.48619335 80.75542387 17.53644562 56.24836826 C16.38371094 52.69466606 15.23133438 49.14084857 14.07983398 45.58674622 C13.85573097 44.89506631 13.63162796 44.2033864 13.40073395 43.4907465 C12.95047016 42.10101068 12.50022896 40.71126755 12.05001068 39.32151699 C10.64001784 34.97049566 9.22605612 30.62078246 7.80979347 26.27179813 C6.86473254 23.36805515 5.92201853 20.46355368 4.97979355 17.55888939 C4.53304016 16.1834885 4.08525336 14.80842282 3.63638687 13.4337101 C3.02038937 11.54676225 2.40828405 9.6585451 1.79638672 7.77026367 C1.44824921 6.70039719 1.10011169 5.6305307 0.74142456 4.52824402 C0 2 0 2 0 0 Z " fill="#000000" transform="translate(221,663)"/>
<path d="M0 0 C20.13 0 40.26 0 61 0 C61 69.96 61 139.92 61 212 C40.87 212 20.74 212 0 212 C0 142.04 0 72.08 0 0 Z " fill="#000000" transform="translate(798,663)"/>
<path d="M0 0 C20.13 0 40.26 0 61 0 C61 69.96 61 139.92 61 212 C40.87 212 20.74 212 0 212 C0 142.04 0 72.08 0 0 Z " fill="#000000" transform="translate(469,663)"/>
<path d="M0 0 C4.8058206 3.95715413 8.52912123 9.10613707 9.625 15.3125 C10.44875193 25.97420357 10.29181148 34.54176421 3.12109375 43.109375 C-2.94405228 49.01375812 -11.05861642 51.48890531 -19.375 51.8125 C-28.40927881 51.44972456 -36.13784073 48.57933722 -42.71875 42.30859375 C-48.15534241 35.75647413 -49.92206337 27.65521639 -49.375 19.3125 C-47.85032753 11.40487667 -44.81525326 4.92537687 -38.48828125 -0.22265625 C-27.03189155 -7.9427774 -11.4465444 -7.91126515 0 0 Z M-35.75 9.8125 C-39.79984076 16.04302424 -40.29294207 22.02574334 -39.375 29.3125 C-37.2154999 34.96612687 -33.3097216 38.95688931 -28.375 42.3125 C-21.7249842 45.0217657 -16.42913069 44.58968192 -9.9375 41.875 C-7.28051278 40.56588872 -7.28051278 40.56588872 -6.375 38.3125 C-7.550625 38.395 -8.72625 38.4775 -9.9375 38.5625 C-12.13671875 38.33203125 -12.13671875 38.33203125 -14.375 37.3125 C-16.59372969 34.3041257 -18.25434992 31.24133051 -19.9296875 27.90234375 C-20.40664062 27.04769531 -20.88359375 26.19304688 -21.375 25.3125 C-22.035 25.3125 -22.695 25.3125 -23.375 25.3125 C-23.375 29.6025 -23.375 33.8925 -23.375 38.3125 C-26.015 38.3125 -28.655 38.3125 -31.375 38.3125 C-31.375 28.0825 -31.375 17.8525 -31.375 7.3125 C-28.508125 7.43625 -25.64125 7.56 -22.6875 7.6875 C-21.79329346 7.72149902 -20.89908691 7.75549805 -19.9777832 7.79052734 C-15.77003031 7.99909825 -12.14911379 8.24306483 -8.375 10.3125 C-7.05270811 12.95708379 -7.27822806 14.99011301 -7.3125 17.9375 C-7.32152344 18.94039062 -7.33054687 19.94328125 -7.33984375 20.9765625 C-7.35144531 21.74742187 -7.36304688 22.51828125 -7.375 23.3125 C-9.025 23.9725 -10.675 24.6325 -12.375 25.3125 C-10.80858249 29.62014815 -8.69163844 33.37421464 -6.375 37.3125 C-3.14215959 36.3092047 -2.359825 35.28648572 -0.625 32.3125 C1.62221135 26.38578876 1.32728408 20.53023919 -0.5625 14.5625 C-3.7735565 8.80474352 -6.96622552 4.4099171 -13.375 2.3125 C-23.02288263 1.08780404 -29.07808281 2.78942928 -35.75 9.8125 Z M-23.375 13.3125 C-23.375 15.2925 -23.375 17.2725 -23.375 19.3125 C-20.735 19.3125 -18.095 19.3125 -15.375 19.3125 C-15.045 17.6625 -14.715 16.0125 -14.375 14.3125 C-17.33164519 12.8341774 -20.11729737 13.25217217 -23.375 13.3125 Z " fill="#000000" transform="translate(1190.375,832.6875)"/>
</svg>
